<?xml version="1.0" encoding="UTF-8" standalone="no"?>
<svg
   xmlns:dc="http://purl.org/dc/elements/1.1/"
   xmlns:cc="http://creativecommons.org/ns#"
   xmlns:rdf="http://www.w3.org/1999/02/22-rdf-syntax-ns#"
   xmlns:svg="http://www.w3.org/2000/svg"
   xmlns="http://www.w3.org/2000/svg"
   xmlns:sodipodi="http://sodipodi.sourceforge.net/DTD/sodipodi-0.dtd"
   xmlns:inkscape="http://www.inkscape.org/namespaces/inkscape"
   height="512pt"
   viewBox="-47 0 512 512"
   width="512pt"
   version="1.1"
   id="svg26"
   sodipodi:docname="zielony.svg"
   inkscape:version="0.92.4 (5da689c313, 2019-01-14)">
  <metadata
     id="metadata32">
    <rdf:RDF>
      <cc:Work
         rdf:about="">
        <dc:format>image/svg+xml</dc:format>
        <dc:type
           rdf:resource="http://purl.org/dc/dcmitype/StillImage" />
        <dc:title></dc:title>
      </cc:Work>
    </rdf:RDF>
  </metadata>
  <defs
     id="defs30" />
  <sodipodi:namedview
     pagecolor="#ffffff"
     bordercolor="#666666"
     borderopacity="1"
     objecttolerance="10"
     gridtolerance="10"
     guidetolerance="10"
     inkscape:pageopacity="0"
     inkscape:pageshadow="2"
     inkscape:window-width="1920"
     inkscape:window-height="1001"
     id="namedview28"
     showgrid="false"
     inkscape:zoom="0.34570313"
     inkscape:cx="-533.69491"
     inkscape:cy="341.33333"
     inkscape:window-x="-9"
     inkscape:window-y="-9"
     inkscape:window-maximized="1"
     inkscape:current-layer="svg26" />
  <path
     d="m341.214844 512h-265.261719c-7.953125 0-14.582031-6.097656-15.238281-14.027344l-30.589844-368.078125c-.355469-4.261719 1.09375-8.476562 3.988281-11.625 2.894531-3.144531 6.976563-4.933593 11.253907-4.933593h326.433593c4.277344 0 8.355469 1.789062 11.253907 4.933593 2.894531 3.148438 4.339843 7.363281 3.988281 11.625l-30.589844 368.078125c-.65625 7.929688-7.285156 14.027344-15.238281 14.027344zm0 0"
     fill="#bdf052"
     id="path2"
     style="fill:#55d400" />
  <path
     d="m371.800781 113.335938h-163.21875v398.664062h132.632813c7.953125 0 14.582031-6.097656 15.238281-14.027344l30.589844-368.078125c.351562-4.261719-1.09375-8.476562-3.988281-11.625-2.898438-3.144531-6.976563-4.933593-11.253907-4.933593zm0 0"
     fill="#63c92f"
     id="path4"
     style="fill:#66ff00" />
  <path
     d="m263.640625 85.644531h-110.113281c-8.445313 0-15.292969-6.847656-15.292969-15.292969 0-38.792968 31.558594-70.351562 70.347656-70.351562 38.792969 0 70.351563 31.558594 70.351563 70.351562 0 8.445313-6.847656 15.292969-15.292969 15.292969zm0 0"
     fill="#bdf052"
     id="path6"
     style="fill:#66ff00" />
  <path
     d="m208.582031 0v85.644531h55.058594c8.445313 0 15.292969-6.847656 15.292969-15.292969 0-38.792968-31.558594-70.351562-70.351563-70.351562zm0 0"
     fill="#63c92f"
     id="path8"
     style="fill:#55d400" />
  <path
     d="m311.898438 268.058594c-7.746094-3.367188-16.757813.183594-20.121094 7.929687l-3.726563 8.570313c-6.136719-10.75-14.429687-20.285156-24.335937-27.789063-16.003906-12.121093-35.097656-18.53125-55.222656-18.53125-33.066407 0-63.675782 17.9375-79.875 46.808594-4.132813 7.363281-1.511719 16.6875 5.851562 20.820313 7.367188 4.132812 16.6875 1.511718 20.820312-5.851563 10.796876-19.238281 31.183594-31.1875 53.203126-31.1875 21.636718 0 41.472656 11.695313 52.320312 29.710937l-12.492188-5.433593c-7.746093-3.367188-16.757812.183593-20.121093 7.929687-3.371094 7.746094.179687 16.753906 7.925781 20.121094l44.3125 19.265625c1.941406.847656 4.019531 1.269531 6.097656 1.269531 1.898438 0 3.800782-.355468 5.605469-1.0625 3.773437-1.488281 6.800781-4.414062 8.417969-8.132812l19.265625-44.3125c3.371093-7.746094-.179688-16.753906-7.925781-20.125zm0 0"
     fill="#86c42b"
     id="path10"
     style="fill:#ff5555" />
  <path
     d="m311.898438 268.058594c-7.746094-3.367188-16.757813.183594-20.121094 7.929687l-3.726563 8.570313c-6.136719-10.75-14.429687-20.285156-24.335937-27.789063-15.980469-12.105469-35.042969-18.511719-55.132813-18.527343v30.585937c21.597657.03125 41.398438 11.71875 52.230469 29.710937l-12.492188-5.433593c-7.746093-3.367188-16.757812.183593-20.121093 7.929687-3.371094 7.746094.179687 16.753906 7.925781 20.121094l44.3125 19.265625c1.941406.847656 4.019531 1.269531 6.097656 1.269531 1.898438 0 3.800782-.355468 5.605469-1.0625 3.773437-1.488281 6.800781-4.414062 8.417969-8.132812l19.265625-44.3125c3.371093-7.746094-.179688-16.753906-7.925781-20.125zm0 0"
     fill="#2f911e"
     id="path12"
     style="fill:#ff0000" />
  <path
     d="m282.699219 365.265625c-7.367188-4.132813-16.6875-1.511719-20.824219 5.851563-10.792969 19.238281-31.179688 31.1875-53.203125 31.1875-21.632813 0-41.46875-11.695313-52.316406-29.710938l12.492187 5.429688c7.75 3.371093 16.757813-.179688 20.125-7.925782 3.367188-7.746094-.183594-16.753906-7.925781-20.121094l-44.316406-19.265624c-7.746094-3.371094-16.753907.179687-20.121094 7.925781l-19.265625 44.3125c-3.367188 7.746093.179688 16.753906 7.925781 20.121093 1.984375.867188 4.054688 1.273438 6.089844 1.273438 5.90625 0 11.53125-3.4375 14.035156-9.199219l3.722657-8.570312c6.136718 10.75 14.429687 20.285156 24.335937 27.789062 16.003906 12.121094 35.097656 18.53125 55.222656 18.53125 33.070313 0 63.675781-17.9375 79.875-46.808593 4.132813-7.367188 1.511719-16.6875-5.851562-20.820313zm0 0"
     fill="#86c42b"
     id="path14"
     style="fill:#ff5555" />
  <path
     d="m282.699219 365.265625c-7.367188-4.132813-16.6875-1.511719-20.824219 5.851563-10.792969 19.238281-31.179688 31.1875-53.203125 31.1875-.027344 0-.058594 0-.089844 0v30.585937c.03125 0 .0625.003906.089844.003906 33.070313 0 63.679687-17.9375 79.878906-46.808593 4.132813-7.367188 1.511719-16.6875-5.851562-20.820313zm0 0"
     fill="#2f911e"
     id="path16"
     style="fill:#ff0000" />
  <path
     d="m401.875 143.921875h-386.582031c-8.445313 0-15.292969-6.847656-15.292969-15.292969 0-40.566406 33.003906-73.570312 73.570312-73.570312h270.027344c40.566406 0 73.570313 33.003906 73.570313 73.570312 0 8.445313-6.847657 15.292969-15.292969 15.292969zm0 0"
     fill="#414952"
     id="path18" />
  <path
     d="m343.597656 55.058594h-135.015625v88.863281h193.292969c8.445312 0 15.292969-6.847656 15.292969-15.292969 0-40.566406-33.003907-73.570312-73.570313-73.570312zm0 0"
     fill="#23272b"
     id="path20" />
  <path
     d="m35.097656 189.726562h346.972656l3.804688-45.804687h-354.582031zm0 0"
     fill="#86c42b"
     id="path22"
     style="fill:#338000" />
  <path
     d="m208.582031 189.726562h173.488281l3.804688-45.804687h-177.292969zm0 0"
     fill="#2f911e"
     id="path24"
     style="fill:#55d400" />
</svg>
