<?xml version="1.0" encoding="UTF-8" standalone="no"?>
<!-- Generator: Adobe Illustrator 19.0.0, SVG Export Plug-In . SVG Version: 6.00 Build 0)  -->

<svg
   xmlns:dc="http://purl.org/dc/elements/1.1/"
   xmlns:cc="http://creativecommons.org/ns#"
   xmlns:rdf="http://www.w3.org/1999/02/22-rdf-syntax-ns#"
   xmlns:svg="http://www.w3.org/2000/svg"
   xmlns="http://www.w3.org/2000/svg"
   xmlns:sodipodi="http://sodipodi.sourceforge.net/DTD/sodipodi-0.dtd"
   xmlns:inkscape="http://www.inkscape.org/namespaces/inkscape"
   version="1.1"
   id="Layer_1"
   x="0px"
   y="0px"
   viewBox="0 0 512 512"
   style="enable-background:new 0 0 512 512;"
   xml:space="preserve"
   sodipodi:docname="garbage-collector.svg"
   inkscape:version="0.92.4 (5da689c313, 2019-01-14)"><metadata
   id="metadata81"><rdf:RDF><cc:Work
       rdf:about=""><dc:format>image/svg+xml</dc:format><dc:type
         rdf:resource="http://purl.org/dc/dcmitype/StillImage" /><dc:title></dc:title></cc:Work></rdf:RDF></metadata><defs
   id="defs79" /><sodipodi:namedview
   pagecolor="#ffffff"
   bordercolor="#666666"
   borderopacity="1"
   objecttolerance="10"
   gridtolerance="10"
   guidetolerance="10"
   inkscape:pageopacity="0"
   inkscape:pageshadow="2"
   inkscape:window-width="1920"
   inkscape:window-height="1001"
   id="namedview77"
   showgrid="false"
   inkscape:zoom="0.5"
   inkscape:cx="-686.08703"
   inkscape:cy="272.40105"
   inkscape:window-x="-9"
   inkscape:window-y="-9"
   inkscape:window-maximized="1"
   inkscape:current-layer="Layer_1" />
<path
   style="fill:#44aa00"
   d="M499.642,246.822l-34.079-88.604c-3.934-10.228-13.76-16.975-24.717-16.975h-78.915v211.862h141.241  v-87.268C503.172,259.334,501.976,252.888,499.642,246.822z"
   id="path2" />
<path
   style="fill:#447821"
   d="M456.739,353.103c-11.168-15.996-29.682-26.483-50.67-26.483c-3.006,0-5.937,0.287-8.828,0.702  V141.241h-35.31v211.862H456.739z"
   id="path4" />
<path
   style="fill:#7F8499;"
   d="M503.172,379.586H44.138v-35.31h459.034c4.875,0,8.828,3.953,8.828,8.828v17.655  C512,375.634,508.047,379.586,503.172,379.586z"
   id="path6" />
<g
   id="g14">
	<circle
   style="fill:#5B5D6E;"
   cx="406.069"
   cy="388.414"
   r="44.138"
   id="circle8" />
	<circle
   style="fill:#5B5D6E;"
   cx="203.034"
   cy="388.414"
   r="44.138"
   id="circle10" />
	<circle
   style="fill:#5B5D6E;"
   cx="114.759"
   cy="388.414"
   r="44.138"
   id="circle12" />
</g>
<g
   id="g22">
	<circle
   style="fill:#AFB9D2;"
   cx="114.759"
   cy="388.414"
   r="26.483"
   id="circle16" />
	<circle
   style="fill:#AFB9D2;"
   cx="203.034"
   cy="388.414"
   r="26.483"
   id="circle18" />
	<circle
   style="fill:#AFB9D2;"
   cx="406.069"
   cy="388.414"
   r="26.483"
   id="circle20" />
</g>
<path
   style="fill:#71c837"
   d="M370.759,114.759c0-19.501-15.809-35.31-35.31-35.31H35.31C15.809,79.448,0,95.257,0,114.759v264.828  c0,4.875,3.953,8.828,8.828,8.828h35.31c4.875,0,8.828-3.953,8.828-8.828v-26.483c0-4.875,3.953-8.828,8.828-8.828h308.966V114.759z  "
   id="path24" />

<g
   id="g40">
	<circle
   style="fill:#7F8499;"
   cx="114.759"
   cy="388.414"
   r="8.828"
   id="circle34" />
	<circle
   style="fill:#7F8499;"
   cx="406.069"
   cy="388.414"
   r="8.828"
   id="circle36" />
	<circle
   style="fill:#7F8499;"
   cx="203.034"
   cy="388.414"
   r="8.828"
   id="circle38" />
</g>
<path
   style="fill:#5B5D6E;"
   d="M499.642,246.822l-27.027-70.27h-57.719c-4.875,0-8.828,3.953-8.828,8.828v22.582  c0,8.045,3.657,15.655,9.939,20.68l26.945,21.556c4.695,3.756,10.53,5.803,16.544,5.803h42.739  C501.645,252.876,500.788,249.801,499.642,246.822z"
   id="path42" />
<path
   style="fill:#FFF082;"
   d="M503.172,326.621h-8.828c-4.875,0-8.828-3.953-8.828-8.828v-8.828c0-4.875,3.953-8.828,8.828-8.828  h8.828V326.621z"
   id="path44" />
<g
   id="g46">
</g>
<g
   id="g48">
</g>
<g
   id="g50">
</g>
<g
   id="g52">
</g>
<g
   id="g54">
</g>
<g
   id="g56">
</g>
<g
   id="g58">
</g>
<g
   id="g60">
</g>
<g
   id="g62">
</g>
<g
   id="g64">
</g>
<g
   id="g66">
</g>
<g
   id="g68">
</g>
<g
   id="g70">
</g>
<g
   id="g72">
</g>
<g
   id="g74">
</g>
</svg>