<?xml version="1.0" encoding="UTF-8" standalone="no"?>
<!-- Created with Inkscape (http://www.inkscape.org/) -->

<svg
   xmlns:dc="http://purl.org/dc/elements/1.1/"
   xmlns:cc="http://creativecommons.org/ns#"
   xmlns:rdf="http://www.w3.org/1999/02/22-rdf-syntax-ns#"
   xmlns:svg="http://www.w3.org/2000/svg"
   xmlns="http://www.w3.org/2000/svg"
   xmlns:sodipodi="http://sodipodi.sourceforge.net/DTD/sodipodi-0.dtd"
   xmlns:inkscape="http://www.inkscape.org/namespaces/inkscape"
   width="100mm"
   height="100mm"
   viewBox="0 0 100 100"
   version="1.1"
   id="svg24"
   inkscape:version="0.92.4 (5da689c313, 2019-01-14)"
   sodipodi:docname="Grass.svg">
  <defs
     id="defs18">
    <pattern
       y="0"
       x="0"
       height="6"
       width="6"
       patternUnits="userSpaceOnUse"
       id="EMFhbasepattern" />
  </defs>
  <sodipodi:namedview
     id="base"
     pagecolor="#ffffff"
     bordercolor="#666666"
     borderopacity="1.0"
     inkscape:pageopacity="0.0"
     inkscape:pageshadow="2"
     inkscape:zoom="0.7"
     inkscape:cx="-244.13114"
     inkscape:cy="101.00366"
     inkscape:document-units="mm"
     inkscape:current-layer="layer1"
     showgrid="false"
     inkscape:window-width="1920"
     inkscape:window-height="1001"
     inkscape:window-x="-9"
     inkscape:window-y="-9"
     inkscape:window-maximized="1" />
  <metadata
     id="metadata21">
    <rdf:RDF>
      <cc:Work
         rdf:about="">
        <dc:format>image/svg+xml</dc:format>
        <dc:type
           rdf:resource="http://purl.org/dc/dcmitype/StillImage" />
        <dc:title></dc:title>
      </cc:Work>
    </rdf:RDF>
  </metadata>
  <g
     inkscape:label="Layer 1"
     inkscape:groupmode="layer"
     id="layer1"
     transform="translate(0,-197)">
    <rect
       style="fill:#87de87;stroke-width:0.34196147"
       id="rect26"
       width="103.56548"
       height="103.56548"
       x="-3.0735996"
       y="196.95094" />
    <g
       id="g954"
       transform="matrix(1.146348,0,0,1.1364792,-13.665258,-38.038652)">
      <path
         inkscape:connector-curvature="0"
         style="fill:#47821c;fill-opacity:1;fill-rule:nonzero;stroke:none;stroke-width:0.1606444"
         d="m 40.732263,260.41948 c -1.696392,-2.30041 -4.433752,-3.77833 -7.505251,-3.77833 -5.166286,0 -9.355861,4.18958 -9.355861,9.34301 0,5.16628 4.189575,9.35586 9.355861,9.35586 1.040968,0 2.056233,-0.16707 2.99439,-0.48835 1.118077,0.64257 2.428926,1.00241 3.816882,1.00241 4.266685,0 7.723727,-3.45705 7.723727,-7.73658 0,-4.03536 -3.08435,-7.33818 -7.029748,-7.69802 z"
         id="path819" />
      <path
         inkscape:connector-curvature="0"
         style="fill:#cc7400;fill-opacity:1;fill-rule:nonzero;stroke:none;stroke-width:0.1606444"
         d="m 47.710606,296.44211 c -1.837758,0 -3.341379,-1.49077 -3.341379,-3.34138 v -41.54876 c 0,-1.83775 1.503621,-3.32853 3.341379,-3.32853 1.837759,0 3.328528,1.49078 3.328528,3.32853 v 41.54876 c 0,1.85061 -1.490769,3.34138 -3.328528,3.34138 z"
         id="path821" />
      <path
         inkscape:connector-curvature="0"
         style="fill:#aa6100;fill-opacity:1;fill-rule:nonzero;stroke:none;stroke-width:0.1606444"
         d="m 47.710606,293.10073 v -41.54876 c 0,-1.23374 0.668275,-2.31326 1.670688,-2.87872 -0.501205,-0.29559 -1.066671,-0.44981 -1.670688,-0.44981 -1.837758,0 -3.341379,1.49078 -3.341379,3.32853 v 41.54876 c 0,1.85061 1.503621,3.34138 3.341379,3.34138 0.604017,0 1.169483,-0.16707 1.670688,-0.4498 -1.002413,-0.57832 -1.670688,-1.65783 -1.670688,-2.89158 z"
         id="path823" />
      <path
         inkscape:connector-curvature="0"
         style="fill:#4e901e;fill-opacity:1;fill-rule:nonzero;stroke:none;stroke-width:0.1606444"
         d="m 76.305098,244.44512 c 0.424101,-1.16949 0.655423,-2.44178 0.655423,-3.76548 0,-6.1687 -4.999216,-11.16792 -11.167914,-11.16792 -6.168701,0 -11.155066,4.99922 -11.155066,11.16792 0,0.70683 0.06426,1.40081 0.192772,2.08193 -6.348619,1.09238 -11.180768,6.6185 -11.180768,13.28842 0,7.45384 6.040185,13.49402 13.494031,13.49402 6.644203,0 12.157479,-4.79359 13.275554,-11.11651 1.208038,0.77109 2.63455,1.22089 4.163873,1.22089 4.25383,0 7.698024,-3.44419 7.698024,-7.69802 0,-3.66267 -2.557443,-6.72132 -5.975929,-7.50525 z"
         id="path825" />
      <path
         inkscape:connector-curvature="0"
         style="fill:#47821c;fill-opacity:1;fill-rule:nonzero;stroke:none;stroke-width:0.1606444"
         d="m 71.241625,241.30936 c 0,-4.35664 -1.503621,-8.45626 -4.151021,-11.72053 -0.424098,-0.0386 -0.861048,-0.0771 -1.297997,-0.0771 -6.168701,0 -11.155066,4.99922 -11.155066,11.16792 0,0.70683 0.06426,1.40081 0.192772,2.08193 -6.348619,1.09238 -11.180768,6.6185 -11.180768,13.28842 0,5.71889 3.547001,10.60245 8.571922,12.56872 2.223302,-2.46748 3.714071,-5.61609 4.086763,-9.08598 8.507665,-1.70925 14.933395,-9.22735 14.933395,-18.22337 z"
         id="path827" />
      <path
         inkscape:connector-curvature="0"
         style="fill:#47821c;fill-opacity:1;fill-rule:nonzero;stroke:none;stroke-width:0.1606444"
         d="m 59.482541,265.56006 c -0.526911,0 -1.015266,-0.35984 -1.169483,-0.8996 -0.192772,-0.64257 0.192771,-1.3237 0.835344,-1.50362 2.698807,-0.75824 4.767891,-3.0458 5.256247,-5.79601 0.115664,-0.66827 0.745385,-1.11808 1.413661,-0.98956 0.668276,0.11566 1.105225,0.74539 0.989561,1.41366 -0.655424,3.67552 -3.392784,6.70846 -6.991193,7.72373 -0.115662,0.0257 -0.218475,0.0385 -0.334137,0.0514 z"
         id="path829" />
      <path
         inkscape:connector-curvature="0"
         style="fill:#5eac24;fill-opacity:1;fill-rule:nonzero;stroke:none;stroke-width:0.1606444"
         d="m 40.1668,246.5142 c -1.927719,0 -3.752627,0.48836 -5.333356,1.34941 -1.644986,-1.22089 -3.688369,-1.94058 -5.898818,-1.94058 -0.07711,0 -0.167069,0 -0.244178,0 -1.105226,-2.41607 -3.534151,-4.08676 -6.361471,-4.08676 -3.86829,0 -7.004045,3.13575 -7.004045,6.9912 0,2.6988 1.529323,5.03777 3.765477,6.20725 -0.01285,0.25703 -0.0257,0.5012 -0.0257,0.75823 0,5.46187 4.420902,9.88277 9.86992,9.88277 1.002413,0 1.966273,-0.15421 2.865873,-0.4241 2.056234,2.28757 5.050624,3.73978 8.366301,3.73978 6.207253,0 11.245025,-5.02492 11.245025,-11.23217 0,-6.20726 -5.037772,-11.24503 -11.245025,-11.24503 z"
         id="path831" />
      <path
         inkscape:connector-curvature="0"
         style="fill:#4e901e;fill-opacity:1;fill-rule:nonzero;stroke:none;stroke-width:0.1606444"
         d="m 27.495263,259.14718 c -2.236154,-1.16948 -3.765478,-3.50844 -3.765478,-6.20725 0,-3.62411 2.750213,-6.5928 6.271512,-6.96549 -0.346989,-0.0386 -0.706831,-0.0514 -1.066671,-0.0514 -0.07711,0 -0.167069,0 -0.244178,0 -1.105226,-2.41607 -3.534151,-4.08676 -6.361471,-4.08676 -3.86829,0 -7.004045,3.13576 -7.004045,6.9912 0,2.6988 1.529323,5.03777 3.765477,6.20725 -0.01285,0.25703 -0.0257,0.5012 -0.0257,0.75823 0,5.46187 4.420902,9.88278 9.86992,9.88278 0.128514,0 0.257029,0 0.385543,-0.0129 -1.169482,-1.61928 -1.85061,-3.61126 -1.85061,-5.7703 0,-0.24417 0.01285,-0.5012 0.0257,-0.74538 z"
         id="path833" />
      <path
         inkscape:connector-curvature="0"
         style="fill:#4e901e;fill-opacity:1;fill-rule:nonzero;stroke:none;stroke-width:0.1606444"
         d="m 40.1668,246.5142 c -1.927719,0 -3.752627,0.48836 -5.333356,1.34941 -1.644986,-1.22089 -3.688369,-1.94058 -5.898818,-1.94058 -0.07711,0 -0.167069,0 -0.244178,0 -1.105226,-2.41607 -3.534151,-4.08676 -6.361471,-4.08676 -0.732534,0 -1.439364,0.11566 -2.10764,0.32129 1.465066,7.81369 8.340596,13.75105 16.57838,13.75105 1.310849,0 2.583143,-0.14136 3.829736,-0.43694 2.968686,2.53173 6.657054,4.06106 10.5896,4.35664 0.115663,-0.66827 0.192772,-1.36225 0.192772,-2.06908 0,-6.20726 -5.037772,-11.24503 -11.245025,-11.24503 z"
         id="path835" />
      <path
         inkscape:connector-curvature="0"
         style="fill:#6dc82a;fill-opacity:1;fill-rule:nonzero;stroke:none;stroke-width:0.1606444"
         d="m 58.981334,229.29325 c 0.07711,-0.50121 0.102812,-1.00242 0.102812,-1.51648 0,-6.15585 -4.986366,-11.14221 -11.142214,-11.14221 -5.950226,0 -10.808076,4.66508 -11.129363,10.55104 0,0 -0.01285,0 -0.01285,0 -6.554242,0 -11.861895,5.30766 -11.861895,11.8619 0,6.5414 5.307653,11.8619 11.861895,11.8619 1.863462,0 3.624113,-0.43695 5.191989,-1.20804 2.493184,3.16146 6.348621,5.17914 10.66671,5.17914 7.505253,0 13.583992,-6.07874 13.583992,-13.57114 0,-5.21769 -2.942985,-9.74141 -7.261074,-12.01611 z"
         id="path837" />
      <path
         inkscape:connector-curvature="0"
         style="fill:#5eac24;fill-opacity:1;fill-rule:nonzero;stroke:none;stroke-width:0.1606444"
         d="m 42.621429,233.97118 c 0,0 0.01285,0 0.01285,0 0.308433,-5.87312 5.179137,-10.5382 11.129361,-10.5382 1.734946,0 3.379934,0.39839 4.845,1.10522 -1.387958,-4.57512 -5.64179,-7.90364 -10.66671,-7.90364 -5.950226,0 -10.808076,4.66508 -11.129363,10.55104 0,0 -0.01285,0 -0.01285,0 -6.554242,0 -11.861895,5.30766 -11.861895,11.8619 0,4.58798 2.608846,8.57192 6.425728,10.5382 -0.385543,-1.18234 -0.604018,-2.44178 -0.604018,-3.75263 0,-6.54139 5.307653,-11.86189 11.861897,-11.86189 z"
         id="path839" />
      <path
         inkscape:connector-curvature="0"
         style="fill:#5eac24;fill-opacity:1;fill-rule:nonzero;stroke:none;stroke-width:0.1606444"
         d="m 52.658416,251.21784 c -0.668276,0 -1.220888,-0.55262 -1.220888,-1.22089 0,-0.68113 0.552612,-1.22089 1.220888,-1.22089 4.125318,0 7.466698,-3.35423 7.466698,-7.4667 0,-0.68113 0.552611,-1.22089 1.220887,-1.22089 0.681128,0 1.22089,0.53976 1.22089,1.22089 0,5.46187 -4.446605,9.90848 -9.908475,9.90848 z"
         id="path841" />
      <path
         inkscape:connector-curvature="0"
         style="fill:#5eac24;fill-opacity:1;fill-rule:nonzero;stroke:none;stroke-width:0.1606444"
         d="m 38.920209,245.39613 c 0,1.70924 -1.387958,3.11004 -3.097202,3.11004 -1.722095,0 -3.110053,-1.4008 -3.110053,-3.11004 0,-1.7221 1.387958,-3.11006 3.110053,-3.11006 1.709244,0 3.097202,1.38796 3.097202,3.11006 z"
         id="path843" />
      <path
         inkscape:connector-curvature="0"
         style="fill:#4e901e;fill-opacity:1;fill-rule:nonzero;stroke:none;stroke-width:0.1606444"
         d="m 43.598139,262.55282 c 0,1.72209 -1.387959,3.11005 -3.110054,3.11005 -1.709243,0 -3.0972,-1.38796 -3.0972,-3.11005 0,-1.70925 1.387957,-3.0972 3.0972,-3.0972 1.722095,0 3.110054,1.38795 3.110054,3.0972 z"
         id="path845" />
      <path
         inkscape:connector-curvature="0"
         style="fill:#5eac24;fill-opacity:1;fill-rule:nonzero;stroke:none;stroke-width:0.1606444"
         d="m 54.509027,233.46997 c 0,1.7221 -1.387958,3.11005 -3.097202,3.11005 -1.722095,0 -3.110053,-1.38795 -3.110053,-3.11005 0,-1.70924 1.387958,-3.0972 3.110053,-3.0972 1.709244,0 3.097202,1.38796 3.097202,3.0972 z"
         id="path847" />
      <path
         inkscape:connector-curvature="0"
         style="fill:#5eac24;fill-opacity:1;fill-rule:nonzero;stroke:none;stroke-width:0.1606444"
         d="m 55.704211,240.19128 c 0,0.65543 -0.53976,1.18234 -1.195184,1.18234 -0.655425,0 -1.182335,-0.52691 -1.182335,-1.18234 0,-0.65542 0.52691,-1.18233 1.182335,-1.18233 0.655424,0 1.195184,0.52691 1.195184,1.18233 z"
         id="path849" />
      <path
         inkscape:connector-curvature="0"
         style="fill:#5eac24;fill-opacity:1;fill-rule:nonzero;stroke:none;stroke-width:0.1606444"
         d="m 44.780474,240.7953 c 0,0.65543 -0.52691,1.18234 -1.182335,1.18234 -0.655425,0 -1.182333,-0.52691 -1.182333,-1.18234 0,-0.65542 0.526908,-1.18233 1.182333,-1.18233 0.655425,0 1.182335,0.52691 1.182335,1.18233 z"
         id="path851" />
      <path
         inkscape:connector-curvature="0"
         style="fill:#5eac24;fill-opacity:1;fill-rule:nonzero;stroke:none;stroke-width:0.1606444"
         d="m 48.301772,246.86119 c 0,0.65542 -0.526909,1.18233 -1.182333,1.18233 -0.655425,0 -1.182335,-0.52691 -1.182335,-1.18233 0,-0.65542 0.52691,-1.18233 1.182335,-1.18233 0.655424,0 1.182333,0.52691 1.182333,1.18233 z"
         id="path853" />
      <path
         inkscape:connector-curvature="0"
         style="fill:#4e901e;fill-opacity:1;fill-rule:nonzero;stroke:none;stroke-width:0.1606444"
         d="m 33.368378,258.73593 c 0,0.65543 -0.526909,1.18234 -1.182333,1.18234 -0.655424,0 -1.182335,-0.52691 -1.182335,-1.18234 0,-0.65542 0.526911,-1.18232 1.182335,-1.18232 0.655424,0 1.182333,0.5269 1.182333,1.18232 z"
         id="path855" />
      <path
         inkscape:connector-curvature="0"
         style="fill:#6dc82a;fill-opacity:1;fill-rule:nonzero;stroke:none;stroke-width:0.1606444"
         d="m 81.265759,296.44211 c 0.539765,-0.86104 0.848196,-1.87631 0.848196,-2.96868 0,-2.77591 -2.004824,-5.08918 -4.652224,-5.53898 -0.526911,-4.27954 -4.163874,-7.59521 -8.584776,-7.59521 -4.767891,0 -8.636179,3.88113 -8.636179,8.64903 0,0.15422 0,0.30843 0.01285,0.46265 -1.914867,0.83535 -3.251419,2.75021 -3.251419,4.96067 0,0.71967 0.141367,1.4008 0.398395,2.03052 z"
         id="path857" />
      <path
         inkscape:connector-curvature="0"
         style="fill:#5eac24;fill-opacity:1;fill-rule:nonzero;stroke:none;stroke-width:0.1606444"
         d="m 65.81831,292.05977 c -0.01285,-0.15422 -0.01285,-0.30844 -0.01285,-0.46266 0,-4.76788 3.868288,-8.64903 8.636179,-8.64903 0.218474,0 0.436953,0.0129 0.642573,0.0257 -1.567879,-1.61929 -3.765478,-2.63455 -6.207255,-2.63455 -4.767891,0 -8.636179,3.88114 -8.636179,8.64903 0,0.15422 0,0.30843 0.01285,0.46265 -1.914868,0.83535 -3.251419,2.75022 -3.251419,4.96067 0,0.71968 0.141367,1.40081 0.398395,2.03052 h 5.20484 c 0.218474,-1.96627 1.477918,-3.62411 3.212865,-4.38234 z"
         id="path859" />
      <path
         inkscape:connector-curvature="0"
         style="fill:#5eac24;fill-opacity:1;fill-rule:nonzero;stroke:none;stroke-width:0.1606444"
         d="m 75.084208,290.28627 c 0,1.72209 -1.387956,3.11005 -3.097199,3.11005 -1.722096,0 -3.110054,-1.38796 -3.110054,-3.11005 0,-1.70925 1.387958,-3.0972 3.110054,-3.0972 1.709243,0 3.097199,1.38795 3.097199,3.0972 z"
         id="path861" />
      <path
         inkscape:connector-curvature="0"
         style="fill:#5eac24;fill-opacity:1;fill-rule:nonzero;stroke:none;stroke-width:0.1606444"
         d="m 79.517964,291.48145 c 0,0.64258 -0.539759,1.18233 -1.182335,1.18233 -0.655423,0 -1.195188,-0.53975 -1.195188,-1.18233 0,-0.65542 0.539765,-1.19518 1.195188,-1.19518 0.642576,0 1.182335,0.53976 1.182335,1.19518 z"
         id="path863" />
      <path
         inkscape:connector-curvature="0"
         style="fill:#6dc82a;fill-opacity:1;fill-rule:nonzero;stroke:none;stroke-width:0.1606444"
         d="m 38.123417,296.39071 c 0.231327,-0.59117 0.359842,-1.24659 0.359842,-1.91487 0,-2.93013 -2.37752,-5.30765 -5.307653,-5.30765 -0.257029,0 -0.514059,0.0257 -0.771087,0.0643 -1.06667,-3.21286 -4.099615,-5.52612 -7.67232,-5.52612 -4.472307,0 -8.096418,3.63696 -8.096418,8.10927 0,1.69639 0.52691,3.27712 1.41366,4.57512 z"
         id="path865" />
      <path
         inkscape:connector-curvature="0"
         style="fill:#5eac24;fill-opacity:1;fill-rule:nonzero;stroke:none;stroke-width:0.1606444"
         d="m 29.68001,286.32802 c 0.359841,0 0.719682,0.0129 1.066671,0.0643 -1.477918,-1.64498 -3.624111,-2.68595 -6.014482,-2.68595 -4.472307,0 -8.096418,3.63696 -8.096418,8.10927 0,1.69639 0.52691,3.27712 1.41366,4.57512 h 3.778329 c -0.154218,-0.62972 -0.244178,-1.28515 -0.244178,-1.96628 0,-4.4723 3.624111,-8.09641 8.096418,-8.09641 z"
         id="path867" />
      <path
         inkscape:connector-curvature="0"
         style="fill:#5eac24;fill-opacity:1;fill-rule:nonzero;stroke:none;stroke-width:0.1606444"
         d="m 27.559519,291.48145 c 0,0.64258 -0.53976,1.18233 -1.182333,1.18233 -0.655425,0 -1.195186,-0.53975 -1.195186,-1.18233 0,-0.65542 0.539761,-1.19518 1.195186,-1.19518 0.642573,0 1.182333,0.53976 1.182333,1.19518 z"
         id="path869" />
      <path
         inkscape:connector-curvature="0"
         style="fill:#5eac24;fill-opacity:1;fill-rule:nonzero;stroke:none;stroke-width:0.1606444"
         d="m 33.29127,293.39632 c 0,0.65542 -0.52691,1.18233 -1.182334,1.18233 -0.655425,0 -1.182335,-0.52691 -1.182335,-1.18233 0,-0.65543 0.52691,-1.18234 1.182335,-1.18234 0.655424,0 1.182334,0.52691 1.182334,1.18234 z"
         id="path871" />
      <path
         inkscape:connector-curvature="0"
         style="fill:#000000;fill-opacity:1;fill-rule:nonzero;stroke:none;stroke-width:0.1606444"
         d="m 61.808654,267.41067 c -0.424098,0.16707 -0.861047,0.32129 -1.310848,0.4498 -0.642574,0.17992 -1.028116,0.86105 -0.835345,1.50362 0.154217,0.53976 0.642573,0.8996 1.169483,0.8996 0.115663,0 0.231327,-0.0129 0.334138,-0.0514 0.539761,-0.15422 1.06667,-0.33414 1.567877,-0.53976 0.629722,-0.25704 0.925306,-0.97672 0.668276,-1.59359 -0.257029,-0.62972 -0.963859,-0.9253 -1.593581,-0.66827 z"
         id="path873" />
      <path
         inkscape:connector-curvature="0"
         style="fill:#000000;fill-opacity:1;fill-rule:nonzero;stroke:none;stroke-width:0.1606444"
         d="m 78.528402,286.93204 c -0.951013,-4.51087 -4.960664,-7.81369 -9.651447,-7.81369 -5.346206,0 -9.70285,4.27954 -9.857067,9.58719 -1.991976,1.19518 -3.238567,3.35423 -3.238567,5.70605 0,0.86104 0.167068,1.69639 0.475504,2.48032 0.192772,0.46266 0.642573,0.77109 1.143779,0.77109 h 23.865155 c 0.424101,0 0.822495,-0.21847 1.040969,-0.57831 0.681131,-1.07953 1.028117,-2.33897 1.028117,-3.61126 0,-3.0458 -1.96627,-5.6675 -4.806443,-6.54139 z m 2.004824,8.28919 h -22.23302 c -0.0514,-0.26989 -0.07711,-0.53977 -0.07711,-0.80964 0,-1.65784 0.989561,-3.17432 2.518885,-3.84259 0.462653,-0.20563 0.758237,-0.68113 0.732533,-1.18234 -0.01285,-0.14136 -0.01285,-0.26988 -0.01285,-0.39839 0,-4.08676 3.328527,-7.41529 7.41529,-7.41529 3.752627,0 6.914087,2.78877 7.363889,6.50284 0.06426,0.53976 0.475503,0.96386 1.002415,1.05381 2.120488,0.3727 3.649815,2.1976 3.649815,4.3438 0,0.60402 -0.128518,1.19518 -0.359847,1.7478 z"
         id="path875" />
      <path
         inkscape:connector-curvature="0"
         style="fill:#000000;fill-opacity:1;fill-rule:nonzero;stroke:none;stroke-width:0.1606444"
         d="m 33.214161,287.9473 c -1.490769,-3.30282 -4.793594,-5.46187 -8.481962,-5.46187 -0.668276,0 -1.220888,0.55261 -1.220888,1.22089 0,0.68113 0.552612,1.23374 1.220888,1.23374 2.955835,0 5.577532,1.87631 6.515689,4.67793 0.192772,0.56546 0.758237,0.8996 1.336552,0.82249 0.205623,-0.0257 0.398394,-0.0385 0.591166,-0.0385 2.249006,0 4.073912,1.82491 4.073912,4.07391 0,0.23132 -0.01285,0.46265 -0.0514,0.69398 H 18.73057 c -0.578315,-1.02812 -0.873899,-2.1719 -0.873899,-3.35423 0,-1.68354 0.61687,-3.30282 1.722095,-4.56227 0.449801,-0.5012 0.398395,-1.27229 -0.102812,-1.72209 -0.501206,-0.44981 -1.272294,-0.3984 -1.722095,0.10281 -1.516472,1.70924 -2.338965,3.89399 -2.338965,6.18155 0,1.88916 0.565464,3.71407 1.632135,5.2691 0.231326,0.33413 0.604019,0.52691 1.002414,0.52691 h 20.073976 c 0.501207,0 0.951008,-0.30844 1.130929,-0.78394 0.295584,-0.74539 0.449801,-1.54218 0.449801,-2.35182 0,-3.58556 -2.90443,-6.50284 -6.489986,-6.52854 z"
         id="path877" />
      <path
         inkscape:connector-curvature="0"
         style="fill:#000000;fill-opacity:1;fill-rule:nonzero;stroke:none;stroke-width:0.1606444"
         d="m 57.156428,268.32312 c -2.711659,0 -5.333356,-0.8996 -7.466698,-2.53173 1.837758,-2.1719 2.955835,-4.97352 2.955835,-8.03216 0,-0.55262 -0.03855,-1.10523 -0.115663,-1.64499 l -1.349403,-1.52933 -1.156632,1.28515 c 0.115664,0.61687 0.16707,1.2466 0.16707,1.88917 0,5.51327 -4.48516,10.01128 -10.011286,10.01128 -2.840172,0 -5.55183,-1.22089 -7.453846,-3.34138 -0.321286,-0.34699 -0.809641,-0.48835 -1.259443,-0.34699 -0.822492,0.24418 -1.670689,0.37269 -2.518885,0.37269 -4.767891,0 -8.649031,-3.88113 -8.649031,-8.66188 0,-0.19277 0,-0.41124 0.0257,-0.66827 0.03856,-0.47551 -0.218475,-0.93816 -0.655424,-1.16949 -1.914867,-1.00241 -3.110053,-2.96868 -3.110053,-5.12772 0,-3.17432 2.595995,-5.77031 5.783156,-5.77031 0.745385,0 1.477918,0.14136 2.159045,0.4241 l 1.002414,-1.04097 -1.657838,-1.68354 c -0.501205,-0.09 -1.002412,-0.14137 -1.503619,-0.14137 -4.536565,0 -8.224933,3.68837 -8.224933,8.21209 0,2.81446 1.41366,5.38475 3.726922,6.88837 0,0.0257 0,0.0514 0,0.0771 0,3.80403 1.927719,7.17112 4.845,9.16309 -0.0257,0.34699 -0.03855,0.69398 -0.03855,1.02812 0,5.83456 4.742187,10.57675 10.576749,10.57675 0.963858,0 1.94057,-0.12852 2.865875,-0.3984 1.220888,0.60402 2.570291,0.91246 3.945396,0.91246 1.079523,0 2.133344,-0.19277 3.122906,-0.56547 v 16.59123 c 0,2.51889 2.043382,4.56227 4.562267,4.56227 2.506033,0 4.549416,-2.04338 4.549416,-4.56227 V 269.9424 c 1.555027,0.53976 3.200013,0.82249 4.883555,0.82249 0.668274,0 1.220888,-0.53976 1.220888,-1.22089 0,-0.66827 -0.552614,-1.22089 -1.220888,-1.22089 z m -13.995239,5.50043 c -0.951009,0.52691 -2.017679,0.80964 -3.135755,0.80964 -1.118077,0 -2.223303,-0.29558 -3.200014,-0.8482 -0.308434,-0.16707 -0.668276,-0.20562 -1.002413,-0.09 -0.835344,0.28274 -1.709244,0.4241 -2.595995,0.4241 -4.420901,0 -8.019309,-3.53415 -8.134972,-7.91649 1.208037,0.4498 2.506034,0.69397 3.855437,0.69397 0.835345,0 1.67069,-0.09 2.480331,-0.28273 2.326113,2.30041 5.474721,3.59841 8.751843,3.59841 1.028117,0 2.030529,-0.12852 2.981538,-0.35984 z m 6.669906,19.27718 c 0,1.16948 -0.951006,2.1205 -2.107638,2.1205 -1.169483,0 -2.107639,-0.95102 -2.107639,-2.1205 V 268.9657 c 0.822493,-0.3984 1.59358,-0.88675 2.300411,-1.45222 0.604018,0.48836 1.24659,0.92531 1.914866,1.31085 z"
         id="path879" />
      <path
         inkscape:connector-curvature="0"
         style="fill:#000000;fill-opacity:1;fill-rule:nonzero;stroke:none;stroke-width:0.1606444"
         d="m 77.834424,243.63548 c 0.244176,-0.96386 0.35984,-1.95343 0.35984,-2.95584 0,-6.82413 -5.551831,-12.38881 -12.388806,-12.38881 -1.593581,0 -3.161459,0.30844 -4.626525,0.89961 v 0.0129 c -0.295585,-0.20563 -0.591167,-0.3984 -0.899602,-0.57832 0.0257,-0.28273 0.03856,-0.56546 0.03856,-0.8482 0,-6.81129 -5.551829,-12.36312 -12.375954,-12.36312 -6.194402,0 -11.373542,4.57512 -12.234589,10.5896 -6.70846,0.56547 -11.990409,6.19441 -11.990409,13.04423 0,7.20967 5.873116,13.08279 13.082783,13.08279 1.683542,0 3.315676,-0.30844 4.857852,-0.93816 2.801618,3.13576 6.772719,4.92211 11.000847,4.92211 8.160677,0 14.804879,-6.6442 14.804879,-14.80488 0,-3.89399 -1.516472,-7.5438 -4.138169,-10.26831 l 0.0257,0.0129 c 0.79679,-0.20562 1.619285,-0.30843 2.45463,-0.30843 5.48757,0 9.947028,4.45946 9.947028,9.93417 0,1.15663 -0.192773,2.27471 -0.578314,3.35424 -0.128517,0.33413 -0.08996,0.69397 0.07711,1.0024 0.167066,0.30844 0.449802,0.52692 0.796788,0.60402 2.955837,0.68113 5.024922,3.27713 5.024922,6.31007 0,3.57271 -2.904428,6.47714 -6.477138,6.47714 -1.246592,0 -2.454629,-0.35984 -3.495597,-1.02812 -0.346989,-0.21847 -0.783938,-0.25703 -1.15663,-0.09 -0.372694,0.15422 -0.642573,0.50121 -0.719682,0.8996 -0.52691,2.99439 -2.146193,5.68034 -4.562268,7.55666 -0.539762,0.41124 -0.642573,1.18233 -0.218475,1.70924 0.231327,0.30844 0.591167,0.4755 0.963859,0.4755 0.257029,0 0.52691,-0.0899 0.745385,-0.25702 2.46748,-1.91487 4.240982,-4.52372 5.114879,-7.4667 1.053821,0.4241 2.171897,0.64257 3.328529,0.64257 4.922111,0 8.918911,-3.9968 8.918911,-8.91891 0,-3.73977 -2.274706,-7.00404 -5.68034,-8.31489 z m -25.176008,10.02413 c -3.80403,0 -7.338182,-1.70924 -9.70285,-4.70363 -0.231326,-0.30843 -0.591167,-0.47551 -0.96386,-0.47551 -0.17992,0 -0.359841,0.0514 -0.526909,0.12852 -1.465066,0.70683 -3.032944,1.07952 -4.66508,1.07952 -5.873116,0 -10.641006,-4.78074 -10.641006,-10.64101 0,-5.86026 4.76789,-10.62815 10.628154,-10.64101 0.01285,0 0.0257,0 0.0257,0 0.655425,0 1.195186,-0.51405 1.22089,-1.15662 0.28273,-5.2691 4.639375,-9.39442 9.908473,-9.39442 5.474722,0 9.921325,4.45946 9.921325,9.92132 0,0.43695 -0.0257,0.88675 -0.08996,1.34941 -0.06426,0.51406 0.192772,1.00241 0.642573,1.24659 4.073911,2.14619 6.605648,6.33577 6.605648,10.93659 0,6.81127 -5.551829,12.35025 -12.363102,12.35025 z"
         id="path881" />
    </g>
    <g
       id="g996"
       transform="matrix(0.67352284,0,0,0.67352284,69.766437,53.559127)">
      <path
         id="path2"
         d="m 35.083712,365.83128 h -2.66536 l 1.319776,-2.68219 c 0.101563,-0.20661 0.01649,-0.4564 -0.190123,-0.55816 -0.206805,-0.102 -0.456395,-0.0165 -0.558154,0.19013 l -1.50092,3.05022 h -2.241839 c -0.230208,0 -0.416898,0.18668 -0.416898,0.41689 0,0.23021 0.18669,0.4169 0.416898,0.4169 h 5.83662 c 0.230209,0 0.416898,-0.18669 0.416898,-0.4169 0,-0.23021 -0.18664,-0.41689 -0.416898,-0.41689 z"
         style="fill:#ebaf4b;stroke-width:0.04906413"
         inkscape:connector-curvature="0" />
      <g
         id="g8"
         transform="matrix(0.04906413,0,0,0.04906413,20.498173,342.84826)">
        <path
           id="path4"
           d="M 297.275,468.428 H 276.94 l 26.899,-54.667 c 2.07,-4.211 0.336,-9.302 -3.875,-11.376 -4.228,-2.079 -9.302,-0.336 -11.376,3.875 l -30.591,62.168 h -45.692 c -4.692,0 -8.497,3.805 -8.497,8.497 0,4.692 3.805,8.497 8.497,8.497 h 84.971 c 4.692,0 8.497,-3.805 8.497,-8.497 -0.001,-4.692 -3.805,-8.497 -8.498,-8.497 z"
           style="fill:#ffc850"
           inkscape:connector-curvature="0" />
        <path
           id="path6"
           d="m 3.454,187.233 41.324,32.693 6.083,-67.252 -45.289,19.041 c -6.38,2.682 -7.546,11.224 -2.118,15.518 z"
           style="fill:#ffc850"
           inkscape:connector-curvature="0" />
      </g>
      <path
         id="path10"
         d="m 41.454492,356.00805 c -3.417708,-0.32137 -5.884358,-4.55987 -7.360894,-7.11337 -0.987219,-1.70728 -2.310332,-2.76197 -4.26907,-3.14417 l 1.229155,-1.59807 c 0,0 -7.643161,-0.139 -8.839443,7.92111 -0.801168,7.08736 4.949835,11.67324 11.618778,11.67324 5.410646,0 10.102599,-3.22283 11.756256,-7.67717 0.140323,-0.37799 -0.241298,-0.73773 -0.613743,-0.58327 -0.782131,0.32426 -2.00746,0.66403 -3.521039,0.5217 z"
         style="fill:#00c3ff;stroke-width:0.04906413"
         inkscape:connector-curvature="0" />
      <g
         id="g16"
         transform="matrix(0.04906413,0,0,0.04906413,20.498173,342.84826)">
        <path
           id="path12"
           d="M 337.636,413.197 C 201.713,413.197 84.499,319.73 100.828,175.279 114.495,83.199 169.439,43.634 215.098,26.632 l 0.039,-0.051 c 0,0 -155.779,-2.833 -180.161,161.444 -16.329,144.451 100.885,237.918 236.808,237.918 29.708,0 58.351,-4.771 85.009,-13.512 -6.338,0.441 -12.709,0.766 -19.157,0.766 z"
           style="fill:#00aaf0"
           inkscape:connector-curvature="0" />
        <path
           id="path14"
           d="m 299.464,155.591 c -14.095,-18.374 -39.291,-24.058 -59.637,-13 l -0.284,0.155 c -114.983,62.606 8.56,278.381 197.875,112.142 7.025,-6.169 2.676,-17.796 -6.673,-17.798 -30.201,-0.005 -79.003,-13.351 -131.281,-81.499 z"
           style="fill:#00aaf0"
           inkscape:connector-curvature="0" />
      </g>
      <path
         id="path18"
         d="m 40.686197,354.3931 c -2.920394,2.74337 -10.135274,4.32496 -10.580041,-1.48463 -0.479847,3.94672 4.74352,8.69583 11.861106,2.43893 0.34546,-0.30366 0.121286,-0.86741 -0.33864,-0.86795 -0.282756,-3.7e-4 -0.598632,-0.0244 -0.942425,-0.0863 z"
         style="fill:#0096dc;stroke-width:0.04906413"
         inkscape:connector-curvature="0" />
      <path
         id="path20"
         d="m 25.911909,352.07355 v 0 c -0.690725,0 -1.250694,-0.55997 -1.250694,-1.2507 v -0.41689 c 0,-0.69073 0.559969,-1.2507 1.250694,-1.2507 v 0 c 0.690725,0 1.250694,0.55997 1.250694,1.2507 v 0.41689 c 0,0.69073 -0.559969,1.2507 -1.250694,1.2507 z"
         style="fill:#4b3f4e;stroke-width:0.04906413"
         inkscape:connector-curvature="0" />
      <path
         id="path22"
         d="m 25.911909,349.15526 v 1.45917 c 0,0.34536 0.27996,0.62537 0.625372,0.62537 0.345411,0 0.625371,-0.27996 0.625371,-0.62537 v -0.20847 c -4.9e-5,-0.69078 -0.560018,-1.2507 -1.250743,-1.2507 z"
         style="fill:#5d5360;stroke-width:0.04906413"
         inkscape:connector-curvature="0" />
      <circle
         id="circle24"
         r="0.41689786"
         cy="349.98907"
         cx="25.911909"
         style="fill:#ffffff;stroke-width:0.04906413" />
    </g>
  </g>
</svg>
