<?xml version="1.0" encoding="UTF-8" standalone="no"?>
<svg
   xmlns:dc="http://purl.org/dc/elements/1.1/"
   xmlns:cc="http://creativecommons.org/ns#"
   xmlns:rdf="http://www.w3.org/1999/02/22-rdf-syntax-ns#"
   xmlns:svg="http://www.w3.org/2000/svg"
   xmlns="http://www.w3.org/2000/svg"
   xmlns:sodipodi="http://sodipodi.sourceforge.net/DTD/sodipodi-0.dtd"
   xmlns:inkscape="http://www.inkscape.org/namespaces/inkscape"
   style="enable-background:new 0 0 58.365 58.365;"
   version="1.1"
   id="Capa_1"
   x="0px"
   y="0px"
   viewBox="0 0 58.365 58.365"
   xml:space="preserve"
   sodipodi:docname="home.svg"
   inkscape:version="1.0beta2 (2b71d25, 2019-12-03)"
   inkscape:export-filename="/Users/leszek/Projects/SZI2020Project/Resources/Images/house.png"
   inkscape:export-xdpi="421.07401"
   inkscape:export-ydpi="421.07401"><metadata
   id="metadata49"><rdf:RDF><cc:Work
       rdf:about=""><dc:format>image/svg+xml</dc:format><dc:type
         rdf:resource="http://purl.org/dc/dcmitype/StillImage" /><dc:title></dc:title></cc:Work></rdf:RDF></metadata><defs
   id="defs47"><pattern
     y="0"
     x="0"
     height="6"
     width="6"
     patternUnits="userSpaceOnUse"
     id="EMFhbasepattern" /></defs><sodipodi:namedview
   units="mm"
   pagecolor="#71c837"
   bordercolor="#666666"
   borderopacity="1"
   objecttolerance="10"
   gridtolerance="10"
   guidetolerance="10"
   inkscape:pageopacity="1"
   inkscape:pageshadow="2"
   inkscape:window-width="1680"
   inkscape:window-height="1028"
   id="namedview45"
   showgrid="false"
   inkscape:zoom="11.313709"
   inkscape:cx="27.713511"
   inkscape:cy="26.971384"
   inkscape:window-x="0"
   inkscape:window-y="0"
   inkscape:window-maximized="1"
   inkscape:current-layer="g12"
   inkscape:document-rotation="0" />
<g
   id="g12">
	<path
   d="M 57.863,26.632 29.182,0 0.502,26.632 c -0.404,0.376 -0.428,1.009 -0.052,1.414 0.374,0.404 1.009,0.427 1.413,0.052 l 3.319,-3.082 v 33.349 h 48 v -33.35 l 3.319,3.082 c 0.192,0.179 0.437,0.267 0.681,0.267 0.269,0 0.536,-0.107 0.732,-0.319 0.377,-0.404 0.353,-1.037 -0.051,-1.413 z m -6.681,29.733 h -44 V 23.158 l 22,-20.429 10.012925,9.297911 L 51.182,23.158 Z"
   id="path2"
   inkscape:connector-curvature="0"
   sodipodi:nodetypes="ccccccccccsccccccccc"
   style="fill:#ff0c00;fill-opacity:0.7085954" />
	
	
	
	
<path
   style="opacity:1;fill:#ffffff;fill-opacity:0.48627451;stroke:none;stroke-width:0.44515678;stroke-miterlimit:4;stroke-dasharray:none"
   d="M 7.435822,39.656051 7.4523641,23.024499 18.119723,13.140958 C 23.98677,7.7050104 28.96502,3.2574172 29.182501,3.2574172 c 0.21748,0 5.195729,4.4475932 11.062777,9.8835408 l 10.667359,9.883541 0.01654,16.631552 0.01654,16.631552 H 29.182501 7.4192799 Z M 27.204026,46.39523 V 39.22326 H 20.15571 13.107394 v 7.17197 7.171971 h 7.048316 7.048316 z m 18.053581,0 v -7.17197 h -7.048316 -7.048316 v 7.17197 7.171971 h 7.048316 7.048316 z M 27.204026,28.341649 v -7.17197 H 20.15571 13.107394 v 7.17197 7.171971 h 7.048316 7.048316 z m 18.053581,0 v -7.17197 h -7.048316 -7.048316 v 7.17197 7.171971 h 7.048316 7.048316 z"
   id="path856"
   inkscape:connector-curvature="0" /><path
   sodipodi:nodetypes="ccssscccccccc"
   style="opacity:1;fill:#fcd577;fill-opacity:1;stroke:none;stroke-width:0.445157;stroke-miterlimit:4;stroke-dasharray:none"
   d="M 7.4311677,39.656051 7.4430555,23.024499 18.117416,13.140958 c 5.870898,-5.4359476 10.851628,-9.8835408 11.068289,-9.8835408 0.216661,0 5.195933,4.4475932 11.065051,9.8835408 l 10.671123,9.883541 0.01192,16.631552 0.01192,16.631552 H 29.182501 7.4192799 Z M 31.160975,46.39523 c -20.773983,-30.930153 -10.386992,-15.465077 0,0 z"
   id="path858"
   inkscape:connector-curvature="0" /><path
   style="opacity:1;fill:#ff2a2a;fill-opacity:0.48627451;stroke:none;stroke-width:0.44515678;stroke-miterlimit:4;stroke-dasharray:none"
   d="m 7.2888217,39.717878 c 0,-9.181359 0.030833,-12.937369 0.068519,-8.34669 0.037685,4.59068 0.037685,12.102701 0,16.69338 -0.037685,4.59068 -0.068519,0.834669 -0.068519,-8.34669 z"
   id="path860"
   inkscape:connector-curvature="0" /><path
   id="path881"
   d="M 43.927139,13.68192 43.413037,0.10546988 35.6004,0.40131224 35.818659,6.1651255 Z"
   style="fill:#cfdce5;fill-opacity:1;fill-rule:nonzero;stroke:none;stroke-width:0.09972315"
   inkscape:connector-curvature="0"
   sodipodi:nodetypes="ccccc" /><path
   style="opacity:1;fill:#fcd577;fill-opacity:1;stroke:none;stroke-width:0.01967334;stroke-miterlimit:4;stroke-dasharray:none"
   d="m 27.186933,25.479697 v -4.120471 h -4.322669 -4.32267 v -0.09838 -0.09838 l 4.330867,0.0027 4.330866,0.0027 0.0027,4.216105 c 0.0018,2.808883 -9.06e-4,4.216105 -0.0082,4.216105 -0.0073,0 -0.01094,-1.377255 -0.01094,-4.120471 z"
   id="path929"
   inkscape:connector-curvature="0" /><path
   style="opacity:1;fill:#fcd577;fill-opacity:1;stroke:none;stroke-width:0.01967334;stroke-miterlimit:4;stroke-dasharray:none"
   d="m 31.157108,25.384063 0.0027,-4.216105 3.964724,-0.0027 3.964724,-0.0027 v 0.09838 0.09838 h -3.956527 -3.956526 v 4.120471 c 0,2.743216 -0.0037,4.120471 -0.01094,4.120471 -0.0073,0 -0.01003,-1.407222 -0.0082,-4.216105 z"
   id="path931"
   inkscape:connector-curvature="0" /><path
   style="opacity:1;fill:#fcd577;fill-opacity:1;stroke:none;stroke-width:0.0556446;stroke-miterlimit:4;stroke-dasharray:none"
   d="m 14.530352,21.344741 c 0.745138,-0.0046 1.955408,-0.0046 2.689489,3e-6 0.734081,0.0046 0.124422,0.0084 -1.354796,0.0084 -1.479219,-2e-6 -2.079831,-0.0038 -1.334693,-0.0084 z"
   id="path933"
   inkscape:connector-curvature="0" /><path
   style="opacity:1;fill:#fcd577;fill-opacity:1;stroke:none;stroke-width:0.01967334;stroke-miterlimit:4;stroke-dasharray:none"
   d="m 13.10989,25.373999 v -4.207908 h 2.716013 2.716014 v 0.09837 0.09837 h -2.683225 -2.683224 v 4.109542 4.109541 h -0.03279 -0.03279 z m 3.575864,-4.030301 c -0.452822,-0.0016 -1.190572,-0.0016 -1.639445,1e-6 -0.448872,0.0016 -0.07838,0.0029 0.823313,0.0029 0.901695,0 1.268954,-0.0013 0.816132,-0.0029 z"
   id="path937"
   inkscape:connector-curvature="0" /><path
   style="opacity:1;fill:#fcd577;fill-opacity:1;stroke:none;stroke-width:0.0556446;stroke-miterlimit:4;stroke-dasharray:none"
   d="m 40.606468,21.347416 c 0.837374,-0.0046 2.207623,-0.0046 3.044996,0 0.837374,0.0046 0.15225,0.0083 -1.522498,0.0083 -1.674747,0 -2.359872,-0.0037 -1.522498,-0.0083 z"
   id="path939"
   inkscape:connector-curvature="0" /><path
   style="opacity:1;fill:#fcd577;fill-opacity:1;stroke:none;stroke-width:0.00703125;stroke-miterlimit:4;stroke-dasharray:none"
   d="m 37.695142,21.361193 1.395507,-9.88e-4 v -0.0957 -0.0957 h 2.275391 2.275391 v 0.08789 0.08789 h -1.47592 c -1.417907,0 -2.021015,0.0027 -1.830721,0.0082 0.04512,0.0013 0.807568,0.0026 1.694336,0.0029 1.071901,3.64e-4 1.612305,0.0019 1.612305,0.0045 0,0.0026 -1.22559,0.0036 -3.670899,0.0029 -2.018994,-5.34e-4 -3.04292,-0.0014 -2.27539,-0.002 z"
   id="path943"
   inkscape:connector-curvature="0" /><path
   style="opacity:1;fill:#fcd577;fill-opacity:1;stroke:none;stroke-width:0.03977476;stroke-miterlimit:4;stroke-dasharray:none"
   d="m 50.931197,34.148339 c -1.33e-4,-4.428508 -0.01983,-11.079445 -0.03293,-11.122863 -0.0041,-0.01353 -0.811213,-0.769112 -1.793619,-1.679071 -0.982406,-0.909958 -2.730843,-2.529372 -3.885416,-3.598696 -1.154573,-1.069325 -2.566576,-2.377348 -3.137786,-2.906718 -1.792886,-1.661561 -4.206867,-3.888 -5.186975,-4.784001 -0.927527,-0.847932 -0.94144,-0.8618976 -0.865416,-0.8687082 0.06306,-0.00565 0.09522,0.00857 0.174958,0.07734 0.05373,0.046344 3.443813,3.1916642 7.533517,6.9896012 l 7.435824,6.90534 5.21e-4,7.640067 5.22e-4,7.640068 H 51.05286 50.931326 l -1.32e-4,-4.292359 z"
   id="path947"
   inkscape:connector-curvature="0" /><path
   style="opacity:1;fill:#fcd577;fill-opacity:1;stroke:none;stroke-width:0.03977476;stroke-miterlimit:4;stroke-dasharray:none"
   d="m 17.67521,13.48345 c 0,-0.0467 0.992184,-0.977784 5.747896,-5.3939508 3.161342,-2.9356311 5.75597,-5.3345942 5.765839,-5.3310294 0.0099,0.00356 1.570781,1.4483165 3.468691,3.2105592 2.857823,2.6535384 3.441842,3.2054096 3.398927,3.2118297 -0.0285,0.00426 -0.05679,0.015563 -0.06287,0.02511 -0.0061,0.00955 -0.279528,-0.2266127 -0.607669,-0.5248002 C 32.12572,5.7184812 29.750226,3.6294747 29.305969,3.334377 29.197234,3.26215 29.189305,3.260247 29.129192,3.291955 c -0.438125,0.2311034 -4.922366,4.2334898 -10.117884,9.030666 -0.705323,0.651246 -1.294487,1.191549 -1.309253,1.200675 -0.01839,0.01136 -0.02685,-0.0012 -0.02685,-0.03985 z"
   id="path949"
   inkscape:connector-curvature="0" /><path
   style="opacity:1;fill:#fcd577;fill-opacity:1;stroke:none;stroke-width:0.00703125;stroke-miterlimit:4;stroke-dasharray:none"
   d="m 13.866111,16.955433 c 0,-10e-4 1.243213,-1.156223 2.762695,-2.567051 1.519482,-1.410829 2.771712,-2.573854 2.782731,-2.584499 0.01223,-0.01182 0.02275,-0.01883 0.02701,-0.018 0.0049,9.48e-4 -0.08197,0.08456 -0.289508,0.278697 -0.979982,0.916717 -1.417761,1.335814 -1.465737,1.403191 -0.01427,0.02004 -0.0097,0.05781 0.0072,0.06038 0.0066,9.99e-4 -0.393121,0.373108 -1.841417,1.714167 l -1.849861,1.71289 -0.06658,0.0011 c -0.03662,5.88e-4 -0.06658,2.1e-4 -0.06658,-8.4e-4 z"
   id="path951"
   inkscape:connector-curvature="0" /><path
   style="opacity:1;fill:#fcd577;fill-opacity:1;stroke:none;stroke-width:0.00703125;stroke-miterlimit:4;stroke-dasharray:none"
   d="m 12.21442,18.48853 c 0,-7.74e-4 0.370459,-0.345354 0.823242,-0.765732 l 0.823242,-0.764325 0.06734,-8.69e-4 0.06734,-8.69e-4 -0.01851,0.01823 c -0.01018,0.01003 -0.382301,0.354999 -0.826928,0.766601 l -0.808414,0.748369 h -0.06366 c -0.03501,0 -0.06366,-6.34e-4 -0.06366,-0.0014 z"
   id="path953"
   inkscape:connector-curvature="0" /><path
   style="opacity:1;fill:#fcd577;fill-opacity:1;stroke:none;stroke-width:0.00703125;stroke-miterlimit:4;stroke-dasharray:none"
   d="m 8.4418801,21.989854 c 0.00883,-0.0084 3.7057019,-3.439919 3.7519529,-3.482597 l 0.01953,-0.01802 0.06241,0.002 0.06241,0.002 -1.892193,1.751953 -1.8921938,1.751954 -0.06084,0.0011 -0.06084,0.0011 z"
   id="path955"
   inkscape:connector-curvature="0" /><path
   style="opacity:1;fill:#fcd577;fill-opacity:1;stroke:none;stroke-width:0.00703125;stroke-miterlimit:4;stroke-dasharray:none"
   d="m 7.1848072,23.984352 8.77e-5,-0.827148 0.6228249,-0.578125 0.622825,-0.578125 0.059705,-8.54e-4 0.059705,-8.53e-4 -0.039063,0.03692 c -0.021484,0.02031 -0.2705203,0.250965 -0.553413,0.512572 l -0.5143506,0.475649 -2.979e-4,0.893555 -2.979e-4,0.893555 H 7.3136258 7.1847195 Z"
   id="path957"
   inkscape:connector-curvature="0" /><path
   style="opacity:1;fill:#fcd577;fill-opacity:1;stroke:none;stroke-width:0.00703125;stroke-miterlimit:4;stroke-dasharray:none"
   d="m 7.1847195,26.061501 v -1.25 H 7.3136258 7.442532 v 1.25 1.25 H 7.3136258 7.1847195 Z"
   id="path959"
   inkscape:connector-curvature="0" /><path
   style="opacity:1;fill:#fcd577;fill-opacity:1;stroke:none;stroke-width:0.00703125;stroke-miterlimit:4;stroke-dasharray:none"
   d="m 7.1847195,28.561501 v -1.25 H 7.3141013 7.443483 l -0.00232,0.268554 c -0.00128,0.147705 -0.00237,0.710205 -0.00243,1.25 l -1.053e-4,0.981446 h -0.048828 -0.048828 l -4.87e-5,-0.03809 c -8.74e-5,-0.06829 -0.00749,-0.318782 -0.010077,-0.340821 -0.00534,-0.04555 -0.00904,-0.0017 -0.013093,0.155026 -0.00227,0.08769 -0.00412,0.173929 -0.00412,0.191654 l -1.1e-6,0.03223 h -0.064453 -0.064453 z"
   id="path961"
   inkscape:connector-curvature="0" /><path
   style="opacity:1;fill:#fcd577;fill-opacity:1;stroke:none;stroke-width:0.00703125;stroke-miterlimit:4;stroke-dasharray:none"
   d="m 7.1847195,31.686501 v -1.875 h 0.065003 0.065003 l -0.00257,0.137695 c -0.00543,0.290686 -0.017982,2.626555 -0.018038,3.357422 l -1.98e-5,0.254883 H 7.239407 7.1847195 Z"
   id="path963"
   inkscape:connector-curvature="0" /><path
   style="opacity:1;fill:#fcd577;fill-opacity:1;stroke:none;stroke-width:0.00703125;stroke-miterlimit:4;stroke-dasharray:none"
   d="m 7.3707279,33.124977 c -0.00922,-1.533721 -0.02156,-2.946641 -0.028069,-3.214844 l -0.00239,-0.09863 h 0.049267 0.049266 l -9.63e-4,1.688476 c -5.297e-4,0.928662 -0.00153,1.772412 -0.00222,1.875 l -0.00125,0.186524 h -0.030505 -0.030505 z"
   id="path965"
   inkscape:connector-curvature="0" /><path
   style="opacity:1;fill:#fcd577;fill-opacity:1;stroke:none;stroke-width:0.00703125;stroke-miterlimit:4;stroke-dasharray:none"
   d="m 7.2914961,36.318264 c 0.00116,-0.393701 0.00299,-1.321387 0.00407,-2.061524 0.00108,-0.740136 0.00313,-1.581689 0.00455,-1.870117 l 0.00258,-0.524414 h 0.028176 0.028176 l 0.00259,0.321289 c 0.00658,0.814705 0.016824,3.186903 0.019061,4.41211 l 8.007e-4,0.438477 h -0.046051 l -0.046051,-10e-7 z"
   id="path967"
   inkscape:connector-curvature="0" /><path
   style="opacity:1;fill:#fcd577;fill-opacity:1;stroke:none;stroke-width:0.00703125;stroke-miterlimit:4;stroke-dasharray:none"
   d="m 7.1842309,35.297756 v -1.736328 h 0.055335 0.055335 l -0.0026,0.715492 c -0.00143,0.393521 -0.0026,1.174869 -0.0026,1.736329 v 1.020835 h -0.052734 -0.052734 z"
   id="path969"
   inkscape:connector-curvature="0" /><path
   style="opacity:1;fill:#fcd577;fill-opacity:1;stroke:none;stroke-width:0.00703125;stroke-miterlimit:4;stroke-dasharray:none"
   d="m 7.3834497,36.647458 c 0,-0.516301 -0.00687,-2.510638 -0.00976,-2.831147 l -0.00229,-0.254883 h 0.03369 0.03369 l -0.00209,0.19043 c -0.00115,0.104736 -0.00217,0.886084 -0.00227,1.736328 l -1.814e-4,1.545898 h -0.025391 -0.025391 z"
   id="path971"
   inkscape:connector-curvature="0" /><path
   style="opacity:1;fill:#fcd577;fill-opacity:1;stroke:none;stroke-width:0.00703125;stroke-miterlimit:4;stroke-dasharray:none"
   d="m 7.2896997,38.596584 v -1.5625 h 0.046875 0.046875 v 1.5625 1.5625 h -0.046875 -0.046875 z"
   id="path973"
   inkscape:connector-curvature="0" /><path
   style="opacity:1;fill:#fcd577;fill-opacity:1;stroke:none;stroke-width:0.00703125;stroke-miterlimit:4;stroke-dasharray:none"
   d="m 7.387354,39.033108 c -1.1e-6,-0.619287 -0.00117,-1.322412 -0.0026,-1.5625 l -0.0026,-0.436524 H 7.40831 7.434466 l -0.0011,1.151367 c -6.034e-4,0.633252 -0.00158,1.336377 -0.00216,1.5625 l -0.00106,0.411133 H 7.408749 7.387352 Z"
   id="path975"
   inkscape:connector-curvature="0" /><path
   style="opacity:1;fill:#fcd577;fill-opacity:1;stroke:none;stroke-width:0.00703125;stroke-miterlimit:4;stroke-dasharray:none"
   d="m 7.1842309,38.596584 v -1.5625 h 0.053382 0.053382 l -0.0026,0.756508 c -0.00143,0.41608 -0.0026,1.119205 -0.0026,1.5625 v 0.805992 h -0.050781 -0.050781 z"
   id="path977"
   inkscape:connector-curvature="0" /><path
   style="opacity:1;fill:#fcd577;fill-opacity:1;stroke:none;stroke-width:0.00703125;stroke-miterlimit:4;stroke-dasharray:none"
   d="m 7.2922987,43.103749 c -0.00143,-0.271059 -0.0026,-1.044497 -0.0026,-1.71875 v -1.225915 h 0.046875 0.046875 l -1e-6,0.842774 c -5e-7,0.463525 -0.00117,1.236963 -0.0026,1.71875 l -0.0026,0.875976 h -0.041675 -0.041675 z"
   id="path979"
   inkscape:connector-curvature="0" /><path
   style="opacity:1;fill:#fcd577;fill-opacity:1;stroke:none;stroke-width:0.00703125;stroke-miterlimit:4;stroke-dasharray:none"
   d="m 7.1842309,41.877834 v -1.71875 h 0.050133 0.050133 l 0.0026,0.926431 c 0.00143,0.509536 0.0026,1.282974 0.0026,1.71875 v 0.792319 h -0.052734 -0.052734 z"
   id="path981"
   inkscape:connector-curvature="0" /><path
   style="opacity:1;fill:#fcd577;fill-opacity:1;stroke:none;stroke-width:0.00703125;stroke-miterlimit:4;stroke-dasharray:none"
   d="m 7.3834503,43.122951 c 4e-7,-0.260498 0.00117,-1.033935 0.0026,-1.71875 l 0.0026,-1.245117 h 0.020835 0.020835 v 1.71875 1.71875 h -0.023437 -0.023437 z"
   id="path983"
   inkscape:connector-curvature="0" /><path
   style="opacity:1;fill:#fcd577;fill-opacity:1;stroke:none;stroke-width:0.03977476;stroke-miterlimit:4;stroke-dasharray:none"
   d="M 7.3205735,49.358176 C 7.3115213,49.236642 7.3055833,48.983078 7.307378,48.7947 l 0.00326,-0.342505 0.018942,0.464039 c 0.0215,0.526694 0.0163,0.781752 -0.00901,0.441942 z"
   id="path985"
   inkscape:connector-curvature="0" /><path
   style="opacity:1;fill:#fcd577;fill-opacity:1;stroke:none;stroke-width:0.03977476;stroke-miterlimit:4;stroke-dasharray:none"
   d="m 7.3205267,48.838894 c -0.00908,-0.212684 -0.016536,-1.478019 -0.016573,-2.811854 -5.97e-5,-2.140992 0.00382,-2.425155 0.033078,-2.425155 0.029159,0 0.03276,0.174738 0.02994,1.452883 -0.00543,2.462831 -0.027189,4.235276 -0.046445,3.784126 z"
   id="path987"
   inkscape:connector-curvature="0" /><path
   style="opacity:1;fill:#fcd577;fill-opacity:1;stroke:none;stroke-width:0.00994369;stroke-miterlimit:4;stroke-dasharray:none"
   d="m 7.1849069,50.123429 v -3.657068 h 0.055243 0.055243 l 4.14e-5,0.330075 c 1.212e-4,0.971633 0.016942,3.060741 0.025608,3.180438 0.0071,0.09804 0.012485,0.02499 0.018203,-0.246792 0.01044,-0.496288 0.027859,-2.313413 0.027928,-2.91354 1.93e-5,-0.164406 0.00162,-0.310454 0.00355,-0.324551 l 0.00351,-0.02563 h 0.027784 0.027784 l -0.00367,2.396153 c -0.00202,1.317884 -0.00367,2.963565 -0.00368,3.657068 l -6.6e-6,1.260915 H 7.3036788 7.1849069 Z"
   id="path989"
   inkscape:connector-curvature="0" /><path
   style="opacity:1;fill:#fcd577;fill-opacity:1;stroke:none;stroke-width:0.00703125;stroke-miterlimit:4;stroke-dasharray:none"
   d="m 7.3363325,49.103107 c -0.00473,-0.157151 -0.00453,-0.220532 0.00129,-0.414062 0.00914,-0.303505 0.018554,-1.104635 0.023052,-1.961914 0.00151,-0.2885 0.00412,-0.50293 0.00611,-0.50293 0.00197,0 0.00255,0.02913 0.00135,0.06738 -0.00116,0.03706 -0.00308,0.283594 -0.00426,0.547851 -0.00397,0.889463 -0.016995,2.354453 -0.021079,2.371094 -0.00162,0.0066 -0.00445,-0.04042 -0.00646,-0.107422 z"
   id="path991"
   inkscape:connector-curvature="0" /><path
   style="opacity:1;fill:#fcd577;fill-opacity:1;stroke:none;stroke-width:0.00703125;stroke-miterlimit:4;stroke-dasharray:none"
   d="m 7.1823543,45.032795 v -1.433594 h 0.052287 0.052287 l 0.00234,0.114258 c 0.00129,0.06284 0.00302,0.707959 0.00386,1.433594 l 0.00152,1.319335 h -0.056142 -0.056142 z"
   id="path993"
   inkscape:connector-curvature="0" /><path
   style="opacity:1;fill:#fcd577;fill-opacity:1;stroke:none;stroke-width:0.00703125;stroke-miterlimit:4;stroke-dasharray:none"
   d="m 7.3720539,46.071857 c 0.00316,-0.608433 0.00941,-2.136556 0.00947,-2.315429 l 4.99e-5,-0.157227 h 0.023437 0.023437 v 1.433594 1.433593 h -0.027018 c -0.017821,0 -0.027777,0.0017 -0.029248,0.0049 -0.00123,0.0027 -0.00128,-0.17705 -1.28e-4,-0.399414 z"
   id="path995"
   inkscape:connector-curvature="0" /><path
   style="opacity:1;fill:#fcd577;fill-opacity:1;stroke:none;stroke-width:0.00703125;stroke-miterlimit:4;stroke-dasharray:none"
   d="m 7.3560727,48.494709 c 0.00655,-0.263686 0.025625,-3.672125 0.025534,-4.5625 l -3.39e-5,-0.333008 h 0.023437 0.023437 v 1.940758 c 0,1.067417 -0.00117,2.188902 -0.0026,2.492188 l -0.0026,0.551429 h -0.034692 -0.034692 z"
   id="path997"
   inkscape:connector-curvature="0" /><path
   style="opacity:1;fill:#fcd577;fill-opacity:1;stroke:none;stroke-width:0.00703125;stroke-miterlimit:4;stroke-dasharray:none"
   d="m 7.3129041,48.455646 c 1.703e-4,-0.07036 -0.00219,-0.729101 -0.00526,-1.463867 -0.00456,-1.094674 -0.00471,-1.497133 -8.273e-4,-2.228516 0.00567,-1.067899 0.00821,-1.160156 0.032017,-1.160156 0.012629,0 0.018562,0.06011 0.023521,0.238281 0.00382,0.137309 0.00367,0.607363 -0.00103,3.185547 -3.212e-4,0.176172 -0.00161,0.293946 -0.00286,0.261719 -0.00125,-0.03223 -0.00245,0.154981 -0.00266,0.416016 -2.101e-4,0.261035 -0.00174,0.565576 -0.00339,0.676758 l -0.00301,0.202148 h -0.0184 -0.0184 z m 0.036275,-0.365188 c -9.343e-4,-0.0049 -0.00173,-0.0018 -0.00178,0.0068 -4.34e-5,0.0086 7.211e-4,0.01257 0.0017,0.0088 9.777e-4,-0.0037 0.00101,-0.01077 7.88e-5,-0.01563 z m 0.00405,-0.375046 c -7.238e-4,-0.01772 -0.00132,-0.0032 -0.00132,0.03223 0,0.03545 5.922e-4,0.04995 0.00132,0.03223 7.238e-4,-0.01772 7.238e-4,-0.04673 0,-0.06445 z"
   id="path999"
   inkscape:connector-curvature="0" /><path
   style="opacity:1;fill:#fcd577;fill-opacity:1;stroke:none;stroke-width:0.00703125;stroke-miterlimit:4;stroke-dasharray:none"
   d="m 7.2936413,45.745685 c 1e-7,-0.397461 4.579e-4,-0.559479 0.00102,-0.360041 5.595e-4,0.199438 5.594e-4,0.524633 -10e-8,0.722656 -5.596e-4,0.198023 -0.00102,0.03485 -0.00102,-0.362615 z"
   id="path1001"
   inkscape:connector-curvature="0" /><path
   style="opacity:1;fill:#fcd577;fill-opacity:1;stroke:none;stroke-width:0.00703125;stroke-miterlimit:4;stroke-dasharray:none"
   d="m 7.1839477,55.071634 -2.1e-6,-1.29004 0.1194048,0.0011 0.1194047,0.0011 -0.00124,1.251842 -0.00124,1.251842 h 1.5458985 1.5458984 v 0.03711 0.03711 H 8.8480123 7.1839498 Z"
   id="path1003"
   inkscape:connector-curvature="0" /><path
   style="opacity:1;fill:#fcd577;fill-opacity:1;stroke:none;stroke-width:0.00703125;stroke-miterlimit:4;stroke-dasharray:none"
   d="m 10.51306,56.324563 v -0.03711 h 3.658203 3.658203 v 0.03711 0.03711 H 14.171263 10.51306 Z"
   id="path1005"
   inkscape:connector-curvature="0" /><path
   style="opacity:1;fill:#fcd577;fill-opacity:1;stroke:none;stroke-width:0.00703125;stroke-miterlimit:4;stroke-dasharray:none"
   d="m 23.695965,56.325975 v -0.03906 h 3.669922 3.669921 v 0.03906 0.03906 h -3.669921 -3.669922 z"
   id="path1011"
   inkscape:connector-curvature="0" /><path
   style="opacity:1;fill:#fcd577;fill-opacity:1;stroke:none;stroke-width:0.00703125;stroke-miterlimit:4;stroke-dasharray:none"
   d="m 23.695965,53.4666 v -0.101563 h 1.74414 1.744141 V 52.17949 50.993943 h 0.0098 0.0098 v 1.28711 1.287109 H 25.44994 23.696034 Z"
   id="path1013"
   inkscape:connector-curvature="0" /><path
   style="opacity:1;fill:#fcd577;fill-opacity:1;stroke:none;stroke-width:0.00703125;stroke-miterlimit:4;stroke-dasharray:none"
   d="m 32.949539,53.4666 v -0.101563 h 3.669922 3.669922 v 0.101563 0.101562 h -3.669922 -3.669922 z"
   id="path1015"
   inkscape:connector-curvature="0" /><path
   style="opacity:1;fill:#fcd577;fill-opacity:1;stroke:none;stroke-width:0.00703125;stroke-miterlimit:4;stroke-dasharray:none"
   d="m 32.949539,56.325975 v -0.03906 h 3.669922 3.669922 v 0.03906 0.03906 h -3.669922 -3.669922 z"
   id="path1017"
   inkscape:connector-curvature="0" /><path
   style="opacity:1;fill:#fcd577;fill-opacity:1;stroke:none;stroke-width:0.00994369;stroke-miterlimit:4;stroke-dasharray:none"
   d="m 31.038097,56.322541 v -0.03867 h 0.955699 0.955699 v 0.03867 0.03867 h -0.955699 -0.955699 z"
   id="path1021"
   inkscape:connector-curvature="0" /><path
   style="opacity:1;fill:#fcd577;fill-opacity:1;stroke:none;stroke-width:0.01988738;stroke-miterlimit:4;stroke-dasharray:none"
   d="m 31.158217,50.509082 c 0,-2.029249 0.0037,-3.054922 0.01105,-3.054922 0.0073,0 0.01105,0.992527 0.01105,2.955485 v 2.955486 h 0.883883 0.883883 v 0.09944 0.09944 h -0.894932 -0.894932 z"
   id="path1025"
   inkscape:connector-curvature="0" /><path
   style="opacity:1;fill:#fcd577;fill-opacity:1;stroke:none;stroke-width:0.01988738;stroke-miterlimit:4;stroke-dasharray:none"
   d="m 40.296088,53.464568 v -0.09944 h 2.447252 2.447253 V 50.409645 47.45416 h 0.03315 0.03314 v 3.054922 3.054923 h -2.480398 -2.480398 z"
   id="path1027"
   inkscape:connector-curvature="0" /><path
   style="opacity:1;fill:#fcd577;fill-opacity:1;stroke:none;stroke-width:0.03977476;stroke-miterlimit:4;stroke-dasharray:none"
   d="m 40.293432,56.311972 c 0,-0.02937 0.60684,-0.03315 5.32898,-0.03315 h 5.328981 l -0.0136,-7.501961 -0.0136,-7.501961 h 0.120506 0.120507 v 7.535107 7.535106 h -5.435884 c -4.817165,0 -5.435883,-0.0038 -5.435883,-0.03315 z"
   id="path1029"
   inkscape:connector-curvature="0" /><path
   style="opacity:1;fill:#fcd577;fill-opacity:1;stroke:none;stroke-width:0.03977476;stroke-miterlimit:4;stroke-dasharray:none"
   d="m 50.922131,39.860691 v -1.414214 h 0.121534 0.121534 v 1.414214 1.414213 h -0.121534 -0.121534 z"
   id="path1031"
   inkscape:connector-curvature="0" /><path
   style="opacity:1;fill:#fcd577;fill-opacity:1;stroke:none;stroke-width:0.0140625;stroke-miterlimit:4;stroke-dasharray:none"
   d="m 36.100075,39.293839 v -0.07031 h 2.976563 2.976562 v 0.07031 0.07031 h -2.976562 -2.976563 z"
   id="path1035"
   inkscape:connector-curvature="0" /><path
   style="opacity:1;fill:#fcd577;fill-opacity:1;stroke:none;stroke-width:0.01988738;stroke-miterlimit:4;stroke-dasharray:none"
   d="m 31.15674,41.924583 v -2.701369 h 2.46935 2.469349 v 0.06629 0.06629 h -2.458301 -2.458301 v 2.635078 c 0,1.749352 -0.0037,2.635077 -0.01105,2.635077 -0.0073,0 -0.01105,-0.907822 -0.01105,-2.701369 z"
   id="path1037"
   inkscape:connector-curvature="0" /><path
   style="opacity:1;fill:#fcd577;fill-opacity:1;stroke:none;stroke-width:0.0140625;stroke-miterlimit:4;stroke-dasharray:none"
   d="m 45.18534,44.295763 v -3.15826 h 0.03516 0.03516 v 3.155464 3.155463 l -0.03516,0.0028 -0.03516,0.0028 z"
   id="path1039"
   inkscape:connector-curvature="0" /><path
   style="opacity:1;fill:#fcd577;fill-opacity:1;stroke:none;stroke-width:0.0140625;stroke-miterlimit:4;stroke-dasharray:none"
   d="M 27.187653,43.294378 V 39.36469 h -3.804688 -3.804687 v -0.07031 -0.07031 h 3.8125 3.8125 v 4 c 0,2.661458 -0.0026,4 -0.0078,4 -0.0052,0 -0.0078,-1.315104 -0.0078,-3.929687 z"
   id="path1041"
   inkscape:connector-curvature="0" /><path
   style="opacity:1;fill:#fcd577;fill-opacity:1;stroke:none;stroke-width:0.0140625;stroke-miterlimit:4;stroke-dasharray:none"
   d="m 13.104528,43.224065 v -4 h 3.234375 3.234375 v 0.07031 0.07031 h -3.199219 -3.199218 v 3.929688 3.929687 h -0.03516 -0.03516 z"
   id="path1043"
   inkscape:connector-curvature="0" /><path
   style="opacity:1;fill:#fcd577;fill-opacity:1;stroke:none;stroke-width:0.028125;stroke-miterlimit:4;stroke-dasharray:none"
   d="m 13.106346,50.398528 c 0,-3.153646 1.03e-4,-3.164062 0.03125,-3.164062 0.03114,0 0.03125,0.01042 0.03125,3.070312 v 3.070313 h 5.257812 5.257813 v 0.09375 0.09375 h -5.289063 -5.289062 z"
   id="path1045"
   inkscape:connector-curvature="0" /><path
   style="opacity:1;fill:#fcd577;fill-opacity:1;stroke:none;stroke-width:0.01988738;stroke-miterlimit:4;stroke-dasharray:none"
   d="m 15.091975,35.4431 v -0.07734 h 6.049056 6.049057 l 0.0028,-2.897481 0.0028,-2.89748 0.0027,2.97482 0.0027,2.97482 h -6.054601 -6.054602 z"
   id="path1047"
   inkscape:connector-curvature="0" /><path
   style="opacity:1;fill:#fcd577;fill-opacity:1;stroke:none;stroke-width:0.01988738;stroke-miterlimit:4;stroke-dasharray:none"
   d="m 13.104493,32.553965 v -2.966593 h 0.03867 0.03867 v 2.889194 2.889194 h 0.956204 0.956203 l -0.0033,0.07458 -0.0033,0.07458 -0.991606,0.0028 -0.991607,0.0028 z"
   id="path1049"
   inkscape:connector-curvature="0" /><path
   style="stroke-width:1.37563"
   inkscape:connector-curvature="0"
   d="M 27.71383,38.960765 H 47.105519 V 19.834241 H 27.71383 Z M 30.484071,22.566601 H 44.335277 V 36.228404 H 30.484071 Z"
   id="path4" /><path
   style="opacity:1;fill:#fcd577;fill-opacity:1;stroke:none;stroke-width:0.01988738;stroke-miterlimit:4;stroke-dasharray:none"
   d="m 45.187023,41.037794 v -0.09391 h 0.03867 0.03867 v 0.09391 0.09391 h -0.03867 -0.03867 z"
   id="path1051"
   inkscape:connector-curvature="0" /><path
   id="path4-2"
   d="m 11.344932,39.017553 h 19.35327 V 19.84106 H 11.344932 Z M 14.109685,22.580559 H 27.933448 V 36.278053 H 14.109685 Z"
   inkscape:connector-curvature="0"
   style="stroke-width:1.37605" /><path
   id="path4-5"
   d="M 27.965842,55.411717 H 47.092366 V 36.285193 H 27.965842 Z m 2.73236,-16.394164 H 44.360004 V 52.679356 H 30.698202 Z"
   inkscape:connector-curvature="0"
   style="stroke-width:1.36619" /><path
   id="path4-0"
   d="M 11.319668,55.354929 H 30.446192 V 36.228405 H 11.319668 Z m 2.73236,-16.394164 H 27.71383 V 52.622568 H 14.052028 Z"
   inkscape:connector-curvature="0"
   style="stroke-width:1.36619" /><path
   inkscape:connector-curvature="0"
   id="path138"
   d="m 14.137061,29.393225 v -6.805903 h 6.761709 6.761708 v 6.805903 6.805902 H 20.89877 14.137061 Z"
   style="fill:none;stroke-width:0.0883883" /><path
   inkscape:connector-curvature="0"
   id="path140"
   d="m 14.137061,29.393225 v -6.805903 h 6.761709 6.761708 v 6.805903 6.805902 H 20.89877 14.137061 Z"
   style="fill:#ffffff;stroke-width:0.0883883" /><path
   inkscape:connector-curvature="0"
   id="path142"
   d="m 30.75407,29.393225 v -6.805903 h 6.761708 6.761709 v 6.805903 6.805902 H 37.515778 30.75407 Z"
   style="fill:#ffffff;stroke-width:0.0883883" /><path
   inkscape:connector-curvature="0"
   id="path144"
   d="m 30.75407,45.833457 v -6.805903 h 6.761708 6.761709 v 6.805903 6.805902 H 37.515778 30.75407 Z"
   style="fill:#ffffff;stroke-width:0.0883883" /><path
   inkscape:export-ydpi="421.07401"
   inkscape:export-xdpi="421.07401"
   inkscape:export-filename="/Users/leszek/Projects/SZI2020Project/Resources/Images/path146.png"
   inkscape:connector-curvature="0"
   id="path146"
   d="m 14.137061,45.789263 v -6.761709 h 6.761709 6.761708 v 6.761709 6.761708 H 20.89877 14.137061 Z"
   style="fill:#ffffff;stroke-width:0.0883883" /></g>
<g
   id="g14">
</g>
<g
   id="g16">
</g>
<g
   id="g18">
</g>
<g
   id="g20">
</g>
<g
   id="g22">
</g>
<g
   id="g24">
</g>
<g
   id="g26">
</g>
<g
   id="g28">
</g>
<g
   id="g30">
</g>
<g
   id="g32">
</g>
<g
   id="g34">
</g>
<g
   id="g36">
</g>
<g
   id="g38">
</g>
<g
   id="g40">
</g>
<g
   id="g42">
</g>
</svg>
