<?xml version="1.0" encoding="UTF-8" standalone="no"?>
<svg
   xmlns:dc="http://purl.org/dc/elements/1.1/"
   xmlns:cc="http://creativecommons.org/ns#"
   xmlns:rdf="http://www.w3.org/1999/02/22-rdf-syntax-ns#"
   xmlns:svg="http://www.w3.org/2000/svg"
   xmlns="http://www.w3.org/2000/svg"
   xmlns:sodipodi="http://sodipodi.sourceforge.net/DTD/sodipodi-0.dtd"
   xmlns:inkscape="http://www.inkscape.org/namespaces/inkscape"
   sodipodi:docname="my-mixed.svg"
   inkscape:version="1.0beta2 (2b71d25, 2019-12-03)"
   id="svg24"
   version="1.1"
   viewBox="0 0 100 100"
   height="100mm"
   width="100mm">
  <defs
     id="defs18" />
  <sodipodi:namedview
     inkscape:document-rotation="0"
     inkscape:window-maximized="0"
     inkscape:window-y="0"
     inkscape:window-x="0"
     inkscape:window-height="1058"
     inkscape:window-width="1600"
     showgrid="false"
     inkscape:current-layer="g835"
     inkscape:document-units="mm"
     inkscape:cy="192.05147"
     inkscape:cx="137.43365"
     inkscape:zoom="1.4"
     inkscape:pageshadow="2"
     inkscape:pageopacity="0.0"
     borderopacity="1.0"
     bordercolor="#666666"
     pagecolor="#ffffff"
     id="base" />
  <metadata
     id="metadata21">
    <rdf:RDF>
      <cc:Work
         rdf:about="">
        <dc:format>image/svg+xml</dc:format>
        <dc:type
           rdf:resource="http://purl.org/dc/dcmitype/StillImage" />
        <dc:title></dc:title>
      </cc:Work>
    </rdf:RDF>
  </metadata>
  <g
     transform="translate(0,-197)"
     id="layer1"
     inkscape:groupmode="layer"
     inkscape:label="Layer 1">
    <rect
       y="195.10567"
       x="-1.5616949"
       height="103.56548"
       width="103.56548"
       id="rect26"
       style="fill:#71c837;stroke-width:0.34196147" />
    <g
       id="g835"
       transform="matrix(0.2022538,0,0,0.2022538,8.0341431,195.11143)">
      <path
         d="M 341.21484,512 H 75.953125 C 68,512 61.371094,505.90234 60.714844,497.97266 L 30.125,129.89453 c -0.355469,-4.26172 1.09375,-8.47656 3.988281,-11.625 2.894531,-3.14453 6.976563,-4.93359 11.253907,-4.93359 H 371.80078 c 4.27734,0 8.35547,1.78906 11.25391,4.93359 2.89453,3.14844 4.33984,7.36328 3.98828,11.625 L 356.45312,497.97266 C 355.79687,505.90234 349.16797,512 341.21484,512 Z m 0,0"
         id="path2"
         style="fill:#666666"
         inkscape:connector-curvature="0" />
      <path
         d="M 401.875,143.92187 H 15.292969 C 6.847656,143.92187 0,137.07422 0,128.62891 0,88.0625 33.003906,55.058594 73.570312,55.058594 H 343.59766 c 40.5664,0 73.57031,33.003906 73.57031,73.570316 0,8.44531 -6.84766,15.29296 -15.29297,15.29296 z m 0,0"
         id="path18"
         inkscape:connector-curvature="0"
         style="fill:#414952" />
      <path
         d="M 35.097656,189.72656 H 382.07031 L 385.875,143.92187 H 31.292969 Z m 0,0"
         id="path22"
         style="fill:#4d4d4d"
         inkscape:connector-curvature="0" />
      <path
         transform="matrix(1.3081748,0,0,1.3081748,-39.723076,9.3376243)"
         inkscape:connector-curvature="0"
         id="path53"
         d="M 36.113614,100.72761 C 32.083596,98.011784 30.770869,94.9566 30.921721,88.644221 31.480463,65.263616 47.964506,44.605953 71.984628,37.184534 l 5.234736,-1.617359 108.928576,-0.222037 c 78.47662,-0.159965 110.51648,0.0044 114.60864,0.58805 24.78791,3.535231 44.29606,23.357198 47.62974,48.395919 0.98861,7.425232 0.50447,10.75684 -1.99475,13.72699 -3.89528,4.629283 8.86522,4.281083 -156.88825,4.281083 H 38.502054 Z"
         style="fill:#333333;stroke-width:0.714286" />
    </g>
  </g>
</svg>
