<?xml version="1.0" encoding="UTF-8" standalone="no"?>
<svg
   xmlns:dc="http://purl.org/dc/elements/1.1/"
   xmlns:cc="http://creativecommons.org/ns#"
   xmlns:rdf="http://www.w3.org/1999/02/22-rdf-syntax-ns#"
   xmlns:svg="http://www.w3.org/2000/svg"
   xmlns="http://www.w3.org/2000/svg"
   xmlns:sodipodi="http://sodipodi.sourceforge.net/DTD/sodipodi-0.dtd"
   xmlns:inkscape="http://www.inkscape.org/namespaces/inkscape"
   inkscape:export-ydpi="65.024002"
   inkscape:export-xdpi="65.024002"
   inkscape:export-filename="/Users/leszek/Projects/SZI2020Project/Resources/Images/trash-paper.png"
   sodipodi:docname="my-paper.svg"
   inkscape:version="0.92.4 (5da689c313, 2019-01-14)"
   id="svg24"
   version="1.1"
   viewBox="0 0 100 100"
   height="100mm"
   width="100mm">
  <defs
     id="defs18" />
  <sodipodi:namedview
     inkscape:document-rotation="0"
     inkscape:window-maximized="1"
     inkscape:window-y="-9"
     inkscape:window-x="-9"
     inkscape:window-height="1001"
     inkscape:window-width="1920"
     showgrid="false"
     inkscape:current-layer="layer1"
     inkscape:document-units="mm"
     inkscape:cy="13.898782"
     inkscape:cx="-419.21349"
     inkscape:zoom="0.7"
     inkscape:pageshadow="2"
     inkscape:pageopacity="0.0"
     borderopacity="1.0"
     bordercolor="#666666"
     pagecolor="#ffffff"
     id="base" />
  <metadata
     id="metadata21">
    <rdf:RDF>
      <cc:Work
         rdf:about="">
        <dc:format>image/svg+xml</dc:format>
        <dc:type
           rdf:resource="http://purl.org/dc/dcmitype/StillImage" />
        <dc:title />
      </cc:Work>
    </rdf:RDF>
  </metadata>
  <g
     transform="translate(0,-197)"
     id="layer1"
     inkscape:groupmode="layer"
     inkscape:label="Layer 1">
    <rect
       y="194.40422"
       x="-2.271791"
       height="103.56548"
       width="103.56548"
       id="rect26"
       style="fill:#87de87;stroke-width:0.34196147;fill-opacity:1"
       inkscape:export-filename="C:\Users\dawid\Desktop\SZI2020Project\Resources\Images\trash-paper.png"
       inkscape:export-xdpi="62.7854"
       inkscape:export-ydpi="62.7854" />
    <g
       id="g855"
       transform="matrix(0.2032791,0,0,0.2032791,7.1101858,194.14752)">
      <path
         d="M 341.21484,512 H 75.953125 C 68,512 61.371094,505.90234 60.714844,497.97266 L 30.125,129.89453 c -0.355469,-4.26172 1.09375,-8.47656 3.988281,-11.625 2.894531,-3.14453 6.976563,-4.93359 11.253907,-4.93359 H 371.80078 c 4.27734,0 8.35547,1.78906 11.25391,4.93359 2.89453,3.14844 4.33984,7.36328 3.98828,11.625 L 356.45312,497.97266 C 355.79687,505.90234 349.16797,512 341.21484,512 Z m 0,0"
         id="path2"
         style="fill:#2a7fff"
         inkscape:connector-curvature="0" />
      <path
         d="M 401.875,143.92187 H 15.292969 C 6.847656,143.92187 0,137.07422 0,128.62891 0,88.0625 33.003906,55.058594 73.570312,55.058594 H 343.59766 c 40.5664,0 73.57031,33.003906 73.57031,73.570316 0,8.44531 -6.84766,15.29296 -15.29297,15.29296 z m 0,0"
         id="path18"
         inkscape:connector-curvature="0"
         style="fill:#414952" />
      <path
         d="M 35.097656,189.72656 H 382.07031 L 385.875,143.92187 H 31.292969 Z m 0,0"
         id="path22"
         style="fill:#0055d4"
         inkscape:connector-curvature="0" />
      <path
         transform="matrix(1.3015767,0,0,1.3015767,-34.977456,14.032333)"
         inkscape:connector-curvature="0"
         id="path29"
         d="M 30.692885,95.236896 C 27.727978,92.080898 27.464893,90.746618 28.142662,82.303045 30.10187,57.895435 50.133972,37.211271 75.899703,32.991473 87.548108,31.083749 287.31659,31.210744 299.16704,33.133406 c 24.89933,4.039763 44.9055,25.13522 46.85362,49.404686 0.65723,8.187551 0.37954,9.560141 -2.56909,12.698804 l -3.30596,3.519029 H 187.07223 33.998841 Z"
         style="fill:#1a1a1a;stroke-width:1.42857" />
    </g>
  </g>
</svg>
