<?xml version="1.0" encoding="UTF-8" standalone="no"?>
<svg
   xmlns:dc="http://purl.org/dc/elements/1.1/"
   xmlns:cc="http://creativecommons.org/ns#"
   xmlns:rdf="http://www.w3.org/1999/02/22-rdf-syntax-ns#"
   xmlns:svg="http://www.w3.org/2000/svg"
   xmlns="http://www.w3.org/2000/svg"
   xmlns:sodipodi="http://sodipodi.sourceforge.net/DTD/sodipodi-0.dtd"
   xmlns:inkscape="http://www.inkscape.org/namespaces/inkscape"
   width="100mm"
   height="100mm"
   viewBox="0 0 100 100"
   version="1.1"
   id="svg24"
   inkscape:version="0.92.4 (5da689c313, 2019-01-14)"
   sodipodi:docname="trash-plastic.svg"
   inkscape:export-filename="C:\Users\dawid\Desktop\SZI2020Project\Resources\Images\trash-plastic.png"
   inkscape:export-xdpi="62.7854"
   inkscape:export-ydpi="62.7854">
  <defs
     id="defs18" />
  <sodipodi:namedview
     id="base"
     pagecolor="#ffffff"
     bordercolor="#666666"
     borderopacity="1.0"
     inkscape:pageopacity="0.0"
     inkscape:pageshadow="2"
     inkscape:zoom="0.98994949"
     inkscape:cx="338.24774"
     inkscape:cy="250.3034"
     inkscape:document-units="mm"
     inkscape:current-layer="layer1"
     showgrid="false"
     inkscape:window-width="1920"
     inkscape:window-height="1001"
     inkscape:window-x="-9"
     inkscape:window-y="-9"
     inkscape:window-maximized="1"
     inkscape:document-rotation="0" />
  <metadata
     id="metadata21">
    <rdf:RDF>
      <cc:Work
         rdf:about="">
        <dc:format>image/svg+xml</dc:format>
        <dc:type
           rdf:resource="http://purl.org/dc/dcmitype/StillImage" />
        <dc:title />
      </cc:Work>
    </rdf:RDF>
  </metadata>
  <g
     inkscape:label="Layer 1"
     inkscape:groupmode="layer"
     id="layer1"
     transform="translate(0,-197)">
    <rect
       style="fill:#87de87;stroke-width:0.34196147;fill-opacity:1"
       id="rect26"
       width="103.56548"
       height="103.56548"
       x="-1.5616949"
       y="195.10567" />
    <g
       transform="matrix(0.2022538,0,0,0.2022538,8.0341431,195.11143)"
       id="g835">
      <path
         inkscape:connector-curvature="0"
         style="fill:#aad400"
         id="path2"
         d="M 341.21484,512 H 75.953125 C 68,512 61.371094,505.90234 60.714844,497.97266 L 30.125,129.89453 c -0.355469,-4.26172 1.09375,-8.47656 3.988281,-11.625 2.894531,-3.14453 6.976563,-4.93359 11.253907,-4.93359 H 371.80078 c 4.27734,0 8.35547,1.78906 11.25391,4.93359 2.89453,3.14844 4.33984,7.36328 3.98828,11.625 L 356.45312,497.97266 C 355.79687,505.90234 349.16797,512 341.21484,512 Z m 0,0" />
      <path
         style="fill:#414952"
         inkscape:connector-curvature="0"
         id="path18"
         d="M 401.875,143.92187 H 15.292969 C 6.847656,143.92187 0,137.07422 0,128.62891 0,88.0625 33.003906,55.058594 73.570312,55.058594 H 343.59766 c 40.5664,0 73.57031,33.003906 73.57031,73.570316 0,8.44531 -6.84766,15.29296 -15.29297,15.29296 z m 0,0" />
      <path
         inkscape:connector-curvature="0"
         style="fill:#668000"
         id="path22"
         d="M 35.097656,189.72656 H 382.07031 L 385.875,143.92187 H 31.292969 Z m 0,0" />
      <path
         style="fill:#ffcc00;stroke-width:0.714286"
         d="m 83.755381,382.76482 c -2.881442,-1.26007 -5.881085,-4.91139 -6.383326,-7.77009 -0.376556,-2.14333 -19.652691,-233.48496 -19.652691,-235.86086 0,-0.96311 14.572975,-1.0824 132.235126,-1.0824 H 322.1896 l -0.42378,4.10714 c -0.23308,2.25893 -4.64792,55.375 -9.81077,118.03572 -8.55994,103.8906 -9.52194,114.2085 -10.91849,117.10573 -0.84231,1.74744 -2.43894,3.83672 -3.54805,4.64286 -2.00948,1.46053 -2.3851,1.46623 -106.78572,1.62008 -86.01112,0.12675 -105.159141,-0.0161 -106.947409,-0.79818 z"
         id="path29"
         inkscape:connector-curvature="0"
         transform="matrix(1.3081748,0,0,1.3081748,-39.723076,9.3376243)" />
      <path
         style="fill:#554400;stroke-width:0.714286"
         d="M 57.416795,135.73004 C 57.058691,133.9849 54.862221,107.262 54.862221,104.65035 v -1.59888 H 189.86222 c 115.50332,0 135,0.14502 135,1.00414 0,1.71995 -2.13607,27.04615 -2.55101,30.24586 l -0.39367,3.03571 H 189.83206 57.746581 Z"
         id="path31"
         inkscape:connector-curvature="0"
         transform="matrix(1.3081748,0,0,1.3081748,-39.723076,9.3376243)" />
      <path
         transform="matrix(1.3081748,0,0,1.3081748,-39.723076,9.3376243)"
         inkscape:connector-curvature="0"
         id="path23"
         d="m 57.719364,136.65741 c 0,-0.37387 -0.461038,-6.07923 -1.02453,-12.67857 -0.563492,-6.59934 -1.175869,-14.00773 -1.360838,-16.46309 l -0.336306,-4.46428 h 93.7432 c 51.55875,0 112.11756,0.21336 134.57512,0.47413 l 40.83193,0.47413 0.015,2.56158 c 0.008,1.40887 -0.52613,8.9098 -1.1875,16.66873 l -1.20249,14.10714 H 189.74616 c -83.07272,0 -132.026796,-0.25205 -132.026796,-0.67977 z"
         style="fill:#d4aa00;stroke-width:0.714286" />
    </g>
  </g>
</svg>
