<?xml version="1.0" encoding="UTF-8" standalone="no"?>
<svg
   xmlns:dc="http://purl.org/dc/elements/1.1/"
   xmlns:cc="http://creativecommons.org/ns#"
   xmlns:rdf="http://www.w3.org/1999/02/22-rdf-syntax-ns#"
   xmlns:svg="http://www.w3.org/2000/svg"
   xmlns="http://www.w3.org/2000/svg"
   xmlns:sodipodi="http://sodipodi.sourceforge.net/DTD/sodipodi-0.dtd"
   xmlns:inkscape="http://www.inkscape.org/namespaces/inkscape"
   sodipodi:docname="my_glass.svg"
   inkscape:version="1.0beta2 (2b71d25, 2019-12-03)"
   id="svg8"
   version="1.1"
   viewBox="0 0 210 297"
   height="297mm"
   width="210mm">
  <defs
     id="defs2" />
  <sodipodi:namedview
     inkscape:window-maximized="0"
     inkscape:window-y="0"
     inkscape:window-x="0"
     inkscape:window-height="1058"
     inkscape:window-width="1600"
     showgrid="false"
     inkscape:document-rotation="0"
     inkscape:current-layer="g835"
     inkscape:document-units="mm"
     inkscape:cy="546.14719"
     inkscape:cx="400"
     inkscape:zoom="0.66"
     inkscape:pageshadow="2"
     inkscape:pageopacity="0.0"
     borderopacity="1.0"
     bordercolor="#666666"
     pagecolor="#ffffff"
     id="base" />
  <metadata
     id="metadata5">
    <rdf:RDF>
      <cc:Work
         rdf:about="">
        <dc:format>image/svg+xml</dc:format>
        <dc:type
           rdf:resource="http://purl.org/dc/dcmitype/StillImage" />
        <dc:title></dc:title>
      </cc:Work>
    </rdf:RDF>
  </metadata>
  <g
     id="layer1"
     inkscape:groupmode="layer"
     inkscape:label="Layer 1">
    <g
       inkscape:label="Layer 1"
       id="layer1-7"
       transform="matrix(2.0277026,0,0,2.0230643,4.9844865,-392.65152)">
      <rect
         style="fill:#71c837;stroke-width:0.341961"
         id="rect26"
         width="103.56548"
         height="103.56548"
         x="-2.271791"
         y="194.4119" />
      <g
         style="display:inline"
         transform="matrix(0.2027401,0,0,0.2027401,7.2226126,194.21567)"
         id="g835">
        <path
           inkscape:connector-curvature="0"
           style="fill:#55d400"
           id="path2"
           d="M 341.21484,512 H 75.953125 C 68,512 61.371094,505.90234 60.714844,497.97266 L 30.125,129.89453 c -0.355469,-4.26172 1.09375,-8.47656 3.988281,-11.625 2.894531,-3.14453 6.976563,-4.93359 11.253907,-4.93359 H 371.80078 c 4.27734,0 8.35547,1.78906 11.25391,4.93359 2.89453,3.14844 4.33984,7.36328 3.98828,11.625 L 356.45312,497.97266 C 355.79687,505.90234 349.16797,512 341.21484,512 Z m 0,0" />
        <path
           style="fill:#1a1a1a"
           inkscape:connector-curvature="0"
           id="path18"
           d="M 401.875,143.92187 H 15.292969 C 6.847656,143.92187 0,137.07422 0,128.62891 0,88.0625 33.003906,55.058594 73.570312,55.058594 H 343.59766 c 40.5664,0 73.57031,33.003906 73.57031,73.570316 0,8.44531 -6.84766,15.29296 -15.29297,15.29296 z m 0,0" />
        <path
           inkscape:connector-curvature="0"
           style="fill:#002b00"
           id="path22"
           d="M 35.097656,189.72656 H 382.07031 L 385.875,143.92187 H 31.292969 Z m 0,0" />
        <path
           transform="matrix(0.64360375,0,0,0.64507935,-47.749837,-0.63212123)"
           inkscape:connector-curvature="0"
           id="path46"
           d="m 181.36364,790.90391 c -7.22977,-4.46578 -9.80581,-8.28707 -11.48314,-17.03401 -0.86244,-4.4975 -10.04402,-111.1318 -20.40352,-236.96514 -10.35949,-125.83333 -19.22611,-231.6856 -19.70359,-235.22727 l -0.86816,-6.43939 h 269.03224 c 147.96773,0 269.03279,0.51136 269.03347,1.13636 6.8e-4,0.625 -8.90915,108.52273 -19.79962,239.77273 -21.99985,265.13815 -19.9243,248.52939 -31.81611,254.59613 -5.72515,2.92074 -10.0255,2.97952 -217.64333,2.97396 -203.55458,-0.005 -211.9798,-0.115 -216.34824,-2.81337 z"
           style="fill:#225500;stroke-width:1.51515" />
      </g>
    </g>
  </g>
</svg>
