<?xml version="1.0" encoding="UTF-8" standalone="no"?>
<!-- Created with Inkscape (http://www.inkscape.org/) -->

<svg
   xmlns:osb="http://www.openswatchbook.org/uri/2009/osb"
   xmlns:dc="http://purl.org/dc/elements/1.1/"
   xmlns:cc="http://creativecommons.org/ns#"
   xmlns:rdf="http://www.w3.org/1999/02/22-rdf-syntax-ns#"
   xmlns:svg="http://www.w3.org/2000/svg"
   xmlns="http://www.w3.org/2000/svg"
   xmlns:sodipodi="http://sodipodi.sourceforge.net/DTD/sodipodi-0.dtd"
   xmlns:inkscape="http://www.inkscape.org/namespaces/inkscape"
   width="100mm"
   height="100mm"
   viewBox="0 0 100 100"
   version="1.1"
   id="svg8"
   inkscape:version="0.92.4 (5da689c313, 2019-01-14)"
   sodipodi:docname="Road.svg">
  <defs
     id="defs2">
    <linearGradient
       id="linearGradient5966"
       osb:paint="solid">
      <stop
         style="stop-color:#71c837;stop-opacity:1;"
         offset="0"
         id="stop5964" />
    </linearGradient>
  </defs>
  <sodipodi:namedview
     id="base"
     pagecolor="#ffffff"
     bordercolor="#666666"
     borderopacity="1.0"
     inkscape:pageopacity="0.0"
     inkscape:pageshadow="2"
     inkscape:zoom="2.0794119"
     inkscape:cx="101.24269"
     inkscape:cy="226.98494"
     inkscape:document-units="mm"
     inkscape:current-layer="layer1"
     showgrid="false"
     inkscape:window-width="1920"
     inkscape:window-height="1001"
     inkscape:window-x="-9"
     inkscape:window-y="-9"
     inkscape:window-maximized="1" />
  <metadata
     id="metadata5">
    <rdf:RDF>
      <cc:Work
         rdf:about="">
        <dc:format>image/svg+xml</dc:format>
        <dc:type
           rdf:resource="http://purl.org/dc/dcmitype/StillImage" />
        <dc:title />
      </cc:Work>
    </rdf:RDF>
  </metadata>
  <g
     inkscape:label="Layer 1"
     inkscape:groupmode="layer"
     id="layer1"
     transform="translate(0,-197)">
    <path
       style="opacity:1;fill:#ffffff;fill-opacity:0.48717951;stroke-width:0.26458332"
       id="path5972-6"
       ry="7.9375"
       rx="8.6934528"
       cy="236.14583"
       cx="26.080357"
       d=""
       inkscape:connector-curvature="0" />
    <path
       style="opacity:1;fill:#ffffff;fill-opacity:0.48717951;stroke-width:0.26458332"
       id="path5972-8"
       ry="7.9375"
       rx="8.6934528"
       cy="236.14583"
       cx="26.080357"
       d=""
       inkscape:connector-curvature="0" />
    <path
       style="opacity:1;fill:#ffffff;fill-opacity:0.48717951;stroke-width:0.26458332"
       id="path5972-5"
       ry="7.9375"
       rx="8.6934528"
       cy="236.14583"
       cx="26.080357"
       d=""
       inkscape:connector-curvature="0" />
    <path
       style="opacity:1;fill:#ffffff;fill-opacity:0.48717951;stroke-width:0.26458332"
       id="path5972-51"
       ry="7.9375"
       rx="8.6934528"
       cy="236.14583"
       cx="26.080357"
       d=""
       inkscape:connector-curvature="0" />
    <path
       style="opacity:1;fill:#ffffff;fill-opacity:0.48717951;stroke-width:0.26458332"
       id="path5972-82"
       ry="7.9375"
       rx="8.6934528"
       cy="236.14583"
       cx="26.080357"
       d=""
       inkscape:connector-curvature="0" />
    <path
       style="opacity:1;fill:#ffffff;fill-opacity:0.48717951;stroke-width:0.26458332"
       id="path5972-4"
       ry="7.9375"
       rx="8.6934528"
       cy="236.14583"
       cx="26.080357"
       d=""
       inkscape:connector-curvature="0" />
    <path
       style="opacity:1;fill:#ffffff;fill-opacity:0.48717951;stroke-width:0.26458332"
       id="path5972-84"
       ry="7.9375"
       rx="8.6934528"
       cy="236.14583"
       cx="26.080357"
       d=""
       inkscape:connector-curvature="0" />
    <g
       id="g871">
      <rect
         y="196.45833"
         x="-1.5119048"
         height="102.80952"
         width="102.80952"
         id="rect10"
         style="fill:#807e78;stroke-width:0.26458332;fill-opacity:0.70731705" />
      <path
         inkscape:connector-curvature="0"
         id="path6056"
         d="m 22.18337,223.50088 c -6.147198,-5.61266 -6.414468,-8.28535 -6.414468,-8.28535 l 7.082642,-1.87089 1.469983,7.21628 z"
         style="fill:#e6e6e6;stroke:#000000;stroke-width:0;stroke-linecap:butt;stroke-linejoin:miter;stroke-miterlimit:4;stroke-dasharray:none;stroke-opacity:1" />
      <path
         inkscape:connector-curvature="0"
         id="path6058"
         d="m 24.526459,225.84849 c -3.82588,1.01078 -3.532618,0.77369 -2.799483,2.26325 0.627126,1.27417 1.971175,2.97538 3.966384,5.0204 l 1.80417,1.84922 1.060152,-1.44831 1.060152,-1.44831 -0.725267,-3.57473 c -0.398897,-1.9661 -0.785762,-3.5697 -0.8597,-3.56355 -0.07394,0.006 -1.651822,0.41206 -3.506408,0.90203 z"
         style="opacity:1;fill:#b3b3b3;fill-opacity:0.48717951;stroke-width:0;stroke-miterlimit:4;stroke-dasharray:none" />
      <path
         inkscape:connector-curvature="0"
         id="path6062"
         d="m 9.1986727,246.94245 c 2.5262063,-3.0583 5.4454313,-6.12563 5.9137213,-6.21377 0.119952,-0.0226 1.761094,-0.16571 3.646981,-0.31808 l 3.428889,-0.27703 3.378885,1.50819 3.378882,1.50819 -5.628973,1.48463 c -4.301751,1.13458 -6.733335,1.72241 -10.31274,2.4931 -2.57607,0.55466 -4.7080422,1.00847 -4.7377149,1.00847 -0.029673,0 0.3897584,-0.53717 0.9320696,-1.1937 z"
         style="opacity:1;fill:#b3b3b3;fill-opacity:0.48627451;stroke:none;stroke-width:0;stroke-miterlimit:4;stroke-dasharray:none" />
      <path
         inkscape:connector-curvature="0"
         id="path6056-5"
         d="m 57.360099,232.50103 c -6.147198,5.61266 -6.414468,8.28535 -6.414468,8.28535 l 7.082642,1.87089 1.469983,-7.21628 z"
         style="fill:#e6e6e6;stroke:#000000;stroke-width:0;stroke-linecap:butt;stroke-linejoin:miter;stroke-miterlimit:4;stroke-dasharray:none;stroke-opacity:1" />
      <path
         inkscape:connector-curvature="0"
         id="path6056-5-7"
         d="m 46.290263,258.94392 c -6.147198,-5.61266 -6.414468,-8.28535 -6.414468,-8.28535 l 7.082642,-1.87089 1.469983,7.21628 z"
         style="fill:#e6e6e6;stroke:#000000;stroke-width:0;stroke-linecap:butt;stroke-linejoin:miter;stroke-miterlimit:4;stroke-dasharray:none;stroke-opacity:1" />
      <path
         inkscape:connector-curvature="0"
         id="path6056-5-7-9"
         d="m 56.97838,280.19292 c -6.147198,-5.61266 -6.414468,-8.28535 -6.414468,-8.28535 l 7.082642,-1.87089 1.469983,7.21628 z"
         style="fill:#e6e6e6;stroke:#000000;stroke-width:0;stroke-linecap:butt;stroke-linejoin:miter;stroke-miterlimit:4;stroke-dasharray:none;stroke-opacity:1" />
      <path
         inkscape:connector-curvature="0"
         id="path6056-5-7-9-1"
         d="m 12.190076,234.89567 c -6.1471976,-5.61266 -6.4144676,-8.28535 -6.4144676,-8.28535 l 7.0826416,-1.87089 1.469983,7.21628 z"
         style="fill:#e6e6e6;stroke:#000000;stroke-width:0;stroke-linecap:butt;stroke-linejoin:miter;stroke-miterlimit:4;stroke-dasharray:none;stroke-opacity:1" />
      <path
         inkscape:connector-curvature="0"
         id="path6056-5-7-9-3"
         d="m 78.990814,280.44741 c -6.147198,-5.61266 -6.414468,-8.28535 -6.414468,-8.28535 l 7.082642,-1.87089 1.469983,7.21628 z"
         style="fill:#e6e6e6;stroke:#000000;stroke-width:0;stroke-linecap:butt;stroke-linejoin:miter;stroke-miterlimit:4;stroke-dasharray:none;stroke-opacity:1" />
      <path
         inkscape:connector-curvature="0"
         id="path6062-6"
         d="m 17.82235,276.39552 c 2.526207,-3.0583 5.445432,-6.12563 5.913722,-6.21377 0.119952,-0.0226 1.761094,-0.16571 3.64698,-0.31808 l 3.428889,-0.27703 3.378885,1.50819 3.378882,1.50819 -5.628973,1.48463 c -4.301751,1.13458 -6.733334,1.72241 -10.312739,2.4931 -2.57607,0.55466 -4.708043,1.00847 -4.737715,1.00847 -0.02967,0 0.389758,-0.53717 0.932069,-1.1937 z"
         style="opacity:1;fill:#b3b3b3;fill-opacity:0.48627451;stroke:none;stroke-width:0;stroke-miterlimit:4;stroke-dasharray:none" />
      <path
         inkscape:connector-curvature="0"
         id="path6062-4-6"
         d="m 14.514123,261.38126 c 2.526207,-3.0583 5.445432,-6.12563 5.913722,-6.21377 0.119952,-0.0226 1.761094,-0.16571 3.64698,-0.31808 l 3.428889,-0.27703 3.378885,1.50819 3.378882,1.50819 -5.628973,1.48463 c -4.301751,1.13458 -6.733334,1.72241 -10.312739,2.4931 -2.57607,0.55466 -4.708043,1.00847 -4.737715,1.00847 -0.02967,0 0.389758,-0.53717 0.932069,-1.1937 z"
         style="opacity:1;fill:#b3b3b3;fill-opacity:0.48627451;stroke:none;stroke-width:0;stroke-miterlimit:4;stroke-dasharray:none" />
      <path
         inkscape:connector-curvature="0"
         id="path6062-4-9"
         d="m 64.010288,235.29716 c 2.526207,-3.0583 5.445433,-6.12563 5.913723,-6.21377 0.119952,-0.0226 1.761093,-0.16571 3.646979,-0.31808 l 3.428889,-0.27703 3.378885,1.50819 3.378882,1.50819 -5.628973,1.48463 c -4.301751,1.13458 -6.733334,1.72241 -10.312739,2.4931 -2.57607,0.55466 -4.708043,1.00847 -4.737715,1.00847 -0.02967,0 0.389758,-0.53717 0.932069,-1.1937 z"
         style="opacity:1;fill:#b3b3b3;fill-opacity:0.48627451;stroke:none;stroke-width:0;stroke-miterlimit:4;stroke-dasharray:none" />
      <path
         inkscape:connector-curvature="0"
         id="path6062-4-8"
         d="m 72.535336,214.17541 c 2.526207,-3.0583 5.445432,-6.12563 5.913722,-6.21377 0.119952,-0.0226 1.761094,-0.16571 3.64698,-0.31808 l 3.428889,-0.27703 3.378885,1.50819 3.378882,1.50819 -5.628973,1.48463 c -4.301751,1.13458 -6.733334,1.72241 -10.312739,2.4931 -2.57607,0.55466 -4.708043,1.00847 -4.737715,1.00847 -0.02967,0 0.389758,-0.53717 0.932069,-1.1937 z"
         style="opacity:1;fill:#b3b3b3;fill-opacity:0.48627451;stroke:none;stroke-width:0;stroke-miterlimit:4;stroke-dasharray:none" />
      <path
         inkscape:connector-curvature="0"
         id="path6062-4-2"
         d="m 37.289994,222.57322 c 2.526207,-3.0583 5.445432,-6.12563 5.913722,-6.21377 0.119952,-0.0226 1.761094,-0.16571 3.64698,-0.31808 l 3.428889,-0.27703 3.378885,1.50819 3.378882,1.50819 -5.628973,1.48463 c -4.301751,1.13458 -6.733334,1.72241 -10.312739,2.4931 -2.57607,0.55466 -4.708043,1.00847 -4.737715,1.00847 -0.02967,0 0.389758,-0.53717 0.932069,-1.1937 z"
         style="opacity:1;fill:#b3b3b3;fill-opacity:0.48627451;stroke:none;stroke-width:0;stroke-miterlimit:4;stroke-dasharray:none" />
      <path
         inkscape:connector-curvature="0"
         id="path6062-4-3"
         d="m 8.1521477,208.44963 c 2.5262073,-3.0583 5.4454323,-6.12563 5.9137223,-6.21377 0.119952,-0.0226 1.761094,-0.16571 3.64698,-0.31808 l 3.428889,-0.27703 3.378885,1.50819 3.378882,1.50819 -5.628973,1.48463 c -4.301751,1.13458 -6.733334,1.72241 -10.312739,2.4931 -2.5760703,0.55466 -4.7080433,1.00847 -4.7377153,1.00847 -0.02967,0 0.389758,-0.53717 0.932069,-1.1937 z"
         style="opacity:1;fill:#b3b3b3;fill-opacity:0.48627451;stroke:none;stroke-width:0;stroke-miterlimit:4;stroke-dasharray:none" />
      <path
         inkscape:connector-curvature="0"
         id="path6062-4-4"
         d="m 31.945935,288.35604 c 2.526206,-3.0583 5.445432,-6.12563 5.913722,-6.21377 0.119952,-0.0226 1.761094,-0.16571 3.64698,-0.31808 l 3.428889,-0.27703 3.378885,1.50819 3.378882,1.50819 -5.628973,1.48463 c -4.301751,1.13458 -6.733334,1.72241 -10.31274,2.4931 -2.57607,0.55466 -4.708043,1.00847 -4.737715,1.00847 -0.02967,0 0.389759,-0.53717 0.93207,-1.1937 z"
         style="opacity:1;fill:#b3b3b3;fill-opacity:0.48627451;stroke:none;stroke-width:0;stroke-miterlimit:4;stroke-dasharray:none" />
      <path
         inkscape:connector-curvature="0"
         id="path6056-5-7-1"
         d="m 37.779909,237.9719 c 3.256891,-7.66046 5.689764,-8.7988 5.689764,-8.7988 l 4.113477,6.06163 -6.320639,3.77956 z"
         style="fill:#e6e6e6;stroke:#000000;stroke-width:0;stroke-linecap:butt;stroke-linejoin:miter;stroke-miterlimit:4;stroke-dasharray:none;stroke-opacity:1" />
      <path
         inkscape:connector-curvature="0"
         id="path6056-5-7-1-2"
         d="m 76.149942,224.40726 c 3.256891,-7.66046 5.689764,-8.7988 5.689764,-8.7988 l 4.113477,6.06163 -6.320639,3.77956 z"
         style="fill:#e6e6e6;stroke:#000000;stroke-width:0;stroke-linecap:butt;stroke-linejoin:miter;stroke-miterlimit:4;stroke-dasharray:none;stroke-opacity:1" />
      <path
         inkscape:connector-curvature="0"
         id="path6062-4-2-0"
         d="m 69.354348,249.42075 c 2.526207,-3.0583 5.445432,-6.12563 5.913722,-6.21377 0.119952,-0.0226 1.761094,-0.16571 3.64698,-0.31808 l 3.428889,-0.27703 3.378885,1.50819 3.378882,1.50819 -5.628973,1.48463 c -4.301751,1.13458 -6.733334,1.72241 -10.312739,2.4931 -2.57607,0.55466 -4.708043,1.00847 -4.737715,1.00847 -0.02967,0 0.389758,-0.53717 0.932069,-1.1937 z"
         style="opacity:1;fill:#b3b3b3;fill-opacity:0.48627451;stroke:none;stroke-width:0;stroke-miterlimit:4;stroke-dasharray:none" />
      <path
         inkscape:connector-curvature="0"
         id="path6056-5-7-9-3-3"
         d="m 61.686242,214.15563 c -6.147198,-5.61266 -6.414468,-8.28535 -6.414468,-8.28535 l 7.082642,-1.87089 1.469983,7.21628 z"
         style="fill:#e6e6e6;stroke:#000000;stroke-width:0;stroke-linecap:butt;stroke-linejoin:miter;stroke-miterlimit:4;stroke-dasharray:none;stroke-opacity:1" />
      <path
         inkscape:connector-curvature="0"
         id="path6056-5-7-9-3-3-5"
         d="m 13.58971,293.29859 c -6.1471975,-5.61266 -6.4144675,-8.28535 -6.4144675,-8.28535 l 7.0826415,-1.87089 1.469983,7.21628 z"
         style="fill:#e6e6e6;stroke:#000000;stroke-width:0;stroke-linecap:butt;stroke-linejoin:miter;stroke-miterlimit:4;stroke-dasharray:none;stroke-opacity:1" />
      <path
         inkscape:connector-curvature="0"
         id="path6056-5-7-9-3-3-6"
         d="m 91.078567,264.03351 c -6.147198,-5.61266 -6.414468,-8.28535 -6.414468,-8.28535 l 7.082642,-1.87089 1.469983,7.21628 z"
         style="fill:#e6e6e6;stroke:#000000;stroke-width:0;stroke-linecap:butt;stroke-linejoin:miter;stroke-miterlimit:4;stroke-dasharray:none;stroke-opacity:1" />
      <path
         inkscape:connector-curvature="0"
         id="path6056-5-7-9-3-3-9"
         d="M 10.917681,274.46715 C 4.7704833,268.85449 4.5032133,266.1818 4.5032133,266.1818 l 7.0826417,-1.87089 1.469983,7.21628 z"
         style="fill:#e6e6e6;stroke:#000000;stroke-width:0;stroke-linecap:butt;stroke-linejoin:miter;stroke-miterlimit:4;stroke-dasharray:none;stroke-opacity:1" />
      <path
         inkscape:connector-curvature="0"
         id="path6062-4-6-9"
         d="m 90.803792,277.41307 c 0.493214,3.93595 0.723461,8.16411 0.466444,8.56537 -0.06582,0.10279 -1.087196,1.39532 -2.269686,2.87231 l -2.149989,2.68543 -3.414926,1.42471 -3.414924,1.4247 2.779997,-5.11479 c 2.124517,-3.90881 3.364342,-6.08159 5.258287,-9.21513 1.363058,-2.25518 2.49494,-4.118 2.515289,-4.13959 0.02035,-0.0216 0.123633,0.65205 0.229508,1.49699 z"
         style="opacity:1;fill:#b3b3b3;fill-opacity:0.48627451;stroke:none;stroke-width:0;stroke-miterlimit:4;stroke-dasharray:none" />
      <path
         inkscape:connector-curvature="0"
         id="path6062-4-6-9-0"
         d="m 62.362985,242.18388 c 0.493214,3.93595 0.723461,8.16411 0.466444,8.56537 -0.06582,0.10279 -1.087196,1.39532 -2.269686,2.87231 l -2.149989,2.68543 -3.414926,1.42471 -3.414924,1.4247 2.779997,-5.11479 c 2.124517,-3.90881 3.364342,-6.08159 5.258287,-9.21513 1.363058,-2.25518 2.49494,-4.118 2.515289,-4.13959 0.02035,-0.0216 0.123633,0.65205 0.229508,1.49699 z"
         style="opacity:1;fill:#b3b3b3;fill-opacity:0.48627451;stroke:none;stroke-width:0;stroke-miterlimit:4;stroke-dasharray:none" />
    </g>
  </g>
</svg>
