<?xml version="1.0" encoding="UTF-8" standalone="no"?>
<!-- Created with Inkscape (http://www.inkscape.org/) -->

<svg
   xmlns:dc="http://purl.org/dc/elements/1.1/"
   xmlns:cc="http://creativecommons.org/ns#"
   xmlns:rdf="http://www.w3.org/1999/02/22-rdf-syntax-ns#"
   xmlns:svg="http://www.w3.org/2000/svg"
   xmlns="http://www.w3.org/2000/svg"
   xmlns:sodipodi="http://sodipodi.sourceforge.net/DTD/sodipodi-0.dtd"
   xmlns:inkscape="http://www.inkscape.org/namespaces/inkscape"
   width="100mm"
   height="100mm"
   viewBox="0 0 100 100"
   version="1.1"
   id="svg24"
   inkscape:version="0.92.4 (5da689c313, 2019-01-14)"
   sodipodi:docname="trash-mixed.svg">
  <defs
     id="defs18" />
  <sodipodi:namedview
     id="base"
     pagecolor="#ffffff"
     bordercolor="#666666"
     borderopacity="1.0"
     inkscape:pageopacity="0.0"
     inkscape:pageshadow="2"
     inkscape:zoom="1.4"
     inkscape:cx="-78.637779"
     inkscape:cy="163.48004"
     inkscape:document-units="mm"
     inkscape:current-layer="layer1"
     showgrid="false"
     inkscape:window-width="1920"
     inkscape:window-height="1001"
     inkscape:window-x="-9"
     inkscape:window-y="-9"
     inkscape:window-maximized="1" />
  <metadata
     id="metadata21">
    <rdf:RDF>
      <cc:Work
         rdf:about="">
        <dc:format>image/svg+xml</dc:format>
        <dc:type
           rdf:resource="http://purl.org/dc/dcmitype/StillImage" />
        <dc:title />
      </cc:Work>
    </rdf:RDF>
  </metadata>
  <g
     inkscape:label="Layer 1"
     inkscape:groupmode="layer"
     id="layer1"
     transform="translate(0,-197)">
    <rect
       style="fill:#87de87;stroke-width:0.34196147;fill-opacity:1"
       id="rect26"
       width="103.56548"
       height="103.56548"
       x="-1.5616949"
       y="195.10567" />
    <g
       transform="matrix(0.2022538,0,0,0.2022538,8.0341431,195.11143)"
       id="g835">
      <path
         inkscape:connector-curvature="0"
         style="fill:#666666"
         id="path2"
         d="M 341.21484,512 H 75.953125 C 68,512 61.371094,505.90234 60.714844,497.97266 L 30.125,129.89453 c -0.355469,-4.26172 1.09375,-8.47656 3.988281,-11.625 2.894531,-3.14453 6.976563,-4.93359 11.253907,-4.93359 H 371.80078 c 4.27734,0 8.35547,1.78906 11.25391,4.93359 2.89453,3.14844 4.33984,7.36328 3.98828,11.625 L 356.45312,497.97266 C 355.79687,505.90234 349.16797,512 341.21484,512 Z m 0,0" />
      <path
         inkscape:connector-curvature="0"
         style="fill:#808080"
         id="path4"
         d="M 371.80078,113.33594 H 208.58203 V 512 h 132.63281 c 7.95313,0 14.58203,-6.09766 15.23828,-14.02734 l 30.58985,-368.07813 c 0.35156,-4.26172 -1.09375,-8.47656 -3.98828,-11.625 -2.89844,-3.14453 -6.97657,-4.93359 -11.25391,-4.93359 z m 0,0" />
      <path
         inkscape:connector-curvature="0"
         style="fill:#808080"
         id="path6"
         d="M 263.64062,85.644531 H 153.52734 c -8.44531,0 -15.29297,-6.847656 -15.29297,-15.292969 C 138.23437,31.558594 169.79297,0 208.58203,0 c 38.79297,0 70.35156,31.558594 70.35156,70.351562 0,8.445313 -6.84765,15.292969 -15.29297,15.292969 z m 0,0" />
      <path
         inkscape:connector-curvature="0"
         style="fill:#333333"
         id="path8"
         d="m 208.58203,0 v 85.644531 h 55.05859 c 8.44532,0 15.29297,-6.847656 15.29297,-15.292969 C 278.93359,31.558594 247.375,0 208.58203,0 Z m 0,0" />
      <path
         inkscape:connector-curvature="0"
         style="fill:#2ad4ff"
         id="path10"
         d="m 311.89844,268.05859 c -7.7461,-3.36718 -16.75782,0.1836 -20.1211,7.92969 l -3.72656,8.57031 c -6.13672,-10.75 -14.42969,-20.28515 -24.33594,-27.78906 -16.0039,-12.12109 -35.09765,-18.53125 -55.22265,-18.53125 -33.06641,0 -63.67578,17.9375 -79.875,46.80859 -4.13282,7.36329 -1.51172,16.6875 5.85156,20.82032 7.36719,4.13281 16.6875,1.51172 20.82031,-5.85157 10.79688,-19.23828 31.1836,-31.1875 53.20313,-31.1875 21.63672,0 41.47265,11.69532 52.32031,29.71094 l -12.49219,-5.43359 c -7.74609,-3.36719 -16.75781,0.18359 -20.12109,7.92969 -3.3711,7.74609 0.17969,16.7539 7.92578,20.12109 l 44.3125,19.26562 c 1.94141,0.84766 4.01953,1.26954 6.09766,1.26954 1.89843,0 3.80078,-0.35547 5.60546,-1.0625 3.77344,-1.48829 6.80079,-4.41407 8.41797,-8.13282 l 19.26563,-44.3125 c 3.37109,-7.74609 -0.17969,-16.7539 -7.92578,-20.125 z m 0,0" />
      <path
         inkscape:connector-curvature="0"
         style="fill:#00aad4"
         id="path12"
         d="m 311.89844,268.05859 c -7.7461,-3.36718 -16.75782,0.1836 -20.1211,7.92969 l -3.72656,8.57031 c -6.13672,-10.75 -14.42969,-20.28515 -24.33594,-27.78906 -15.98047,-12.10547 -35.04297,-18.51172 -55.13281,-18.52734 v 30.58593 c 21.59766,0.0312 41.39844,11.71875 52.23047,29.71094 l -12.49219,-5.43359 c -7.74609,-3.36719 -16.75781,0.18359 -20.12109,7.92969 -3.3711,7.74609 0.17969,16.7539 7.92578,20.12109 l 44.3125,19.26562 c 1.94141,0.84766 4.01953,1.26954 6.09766,1.26954 1.89843,0 3.80078,-0.35547 5.60546,-1.0625 3.77344,-1.48829 6.80079,-4.41407 8.41797,-8.13282 l 19.26563,-44.3125 c 3.37109,-7.74609 -0.17969,-16.7539 -7.92578,-20.125 z m 0,0" />
      <path
         inkscape:connector-curvature="0"
         style="fill:#55ddff"
         id="path14"
         d="m 282.69922,365.26562 c -7.36719,-4.13281 -16.6875,-1.51171 -20.82422,5.85157 -10.79297,19.23828 -31.17969,31.1875 -53.20313,31.1875 -21.63281,0 -41.46875,-11.69532 -52.3164,-29.71094 l 12.49219,5.42969 c 7.75,3.37109 16.75781,-0.17969 20.125,-7.92578 3.36718,-7.7461 -0.1836,-16.75391 -7.92579,-20.1211 l -44.3164,-19.26562 c -7.7461,-3.3711 -16.75391,0.17968 -20.12109,7.92578 l -19.26563,44.3125 c -3.367188,7.74609 0.179688,16.7539 7.92578,20.12109 1.98438,0.86719 4.05469,1.27344 6.08985,1.27344 5.90625,0 11.53125,-3.4375 14.03515,-9.19922 l 3.72266,-8.57031 c 6.13672,10.75 14.42968,20.28515 24.33593,27.78906 16.00391,12.12109 35.09766,18.53125 55.22266,18.53125 33.07031,0 63.67578,-17.9375 79.875,-46.80859 4.13281,-7.36719 1.51172,-16.6875 -5.85156,-20.82032 z m 0,0" />
      <path
         inkscape:connector-curvature="0"
         style="fill:#00aad4"
         id="path16"
         d="m 282.69922,365.26562 c -7.36719,-4.13281 -16.6875,-1.51171 -20.82422,5.85157 -10.79297,19.23828 -31.17969,31.1875 -53.20313,31.1875 -0.0273,0 -0.0586,0 -0.0898,0 v 30.58593 c 0.0312,0 0.0625,0.004 0.0898,0.004 33.07032,0 63.67969,-17.9375 79.87891,-46.80859 4.13281,-7.36719 1.51172,-16.6875 -5.85156,-20.82032 z m 0,0" />
      <path
         style="fill:#414952"
         inkscape:connector-curvature="0"
         id="path18"
         d="M 401.875,143.92187 H 15.292969 C 6.847656,143.92187 0,137.07422 0,128.62891 0,88.0625 33.003906,55.058594 73.570312,55.058594 H 343.59766 c 40.5664,0 73.57031,33.003906 73.57031,73.570316 0,8.44531 -6.84766,15.29296 -15.29297,15.29296 z m 0,0" />
      <path
         style="fill:#23272b"
         inkscape:connector-curvature="0"
         id="path20"
         d="M 343.59766,55.058594 H 208.58203 V 143.92187 H 401.875 c 8.44531,0 15.29297,-6.84765 15.29297,-15.29296 0,-40.56641 -33.00391,-73.570316 -73.57031,-73.570316 z m 0,0" />
      <path
         inkscape:connector-curvature="0"
         style="fill:#4d4d4d"
         id="path22"
         d="M 35.097656,189.72656 H 382.07031 L 385.875,143.92187 H 31.292969 Z m 0,0" />
      <path
         inkscape:connector-curvature="0"
         style="fill:#666666"
         id="path24"
         d="M 208.58203,189.72656 H 382.07031 L 385.875,143.92187 H 208.58203 Z m 0,0" />
    </g>
  </g>
</svg>
